<svg viewBox="296.1538461538462 450 987.1794871794867 1372.4999999999998" xmlns="http://www.w3.org/2000/svg" xmlns:xlink="http://www.w3.org/1999/xlink" overflow="visible" width="987.1794871794867px" height="1372.4999999999998px"><defs><rect id="mastercharactersitting-path-1" x="0" y="0" width="1400" height="928"/><path d="M346,1 L403,44 C455.330837,60.5927043 498.49333,98.0479325 522.293031,147.519222 L574,255 L574,255 L617,159 L692,193 L637.210403,321.803615 C619.915873,362.46093 572.93662,381.40021 532.279305,364.10568 C517.498602,357.818366 504.952779,347.227337 496.274699,333.711035 L465,285 L465,285 C484.333333,388.333333 494.666667,454.666667 496,484 C497.333333,513.333333 487.666667,530 467,534 L122.243501,534 C67.0150256,534 22.2435006,489.228475 22.2435006,434 C22.2435006,427.344215 22.9079885,420.705057 24.2270788,414.181295 L66.6882657,204.183034 C82.3396526,126.776718 138.279412,63.6979364 213.259839,38.9060209 L216,38 L216,38 L271,0 L324.45715,50.637 L346,1 Z" id="mastercharactersitting-path-3"/></defs><g id="Master/Character/Sitting" stroke="none" stroke-width="1" fill="none" fill-rule="evenodd"><g id="Chair" transform="translate(100.000000, 800.000000) scale(1 1)"><g id="Chair/Wooden" stroke="none" stroke-width="1" fill="none" fill-rule="evenodd"><path d="M927.228215,677.299364 L620.956284,677.299364 C613.031846,677.299364 607.640064,669.261609 610.648498,661.932283 L650.658439,564.473401 L936.73598,544.771101 L936.73598,500.215923 L508.137788,500.215923 L508.137788,544.771101 L581.432149,560.303036 L536.06831,677.299364 L508.143359,677.299364 L433.164275,604.570833 L443.774018,173.951723 C444.14283,158.860884 432.090153,146.51353 416.990044,146.51353 C364.024895,135.542932 309.41068,135.170896 256.301795,145.420815 L249.091582,146.81205 C233.061087,149.905293 221.611211,164.12285 222.010107,180.44007 L230.902814,540.850245 C231.901169,581.690635 248.892134,620.509334 278.221021,648.957815 L376.340532,744.13213 L425.263237,744.13213 L512.164632,744.13213 L411,1000 L466.711737,1000 L576.902785,744.13213 L577.043179,744.13213 L874.084789,744.13213 L944.288263,999 L1000,999 L927.228215,677.299364 Z" id="Chair-back" fill="#C4A182"/><path d="M942,1000 L1074.87415,1000 C1085.91985,1000 1094.87415,991.045695 1094.87415,980 C1094.87415,972.371944 1090.53508,965.408128 1083.68762,962.046648 L996,919 L996,919 L912,919 L912,970 C912,986.568542 925.431458,1000 942,1000 Z" id="Fill-21" fill="#DBDAC6"/><path d="M715.769613,1000 L861.405462,1000 C872.451157,1000 881.405462,991.045695 881.405462,980 C881.405462,972.354734 877.046994,965.378353 870.176068,962.025672 L782,919 L782,919 L698,919 L686.729706,962.471135 C682.571628,978.509433 692.20245,994.88183 708.240748,999.039907 C710.699603,999.677388 713.229465,1000 715.769613,1000 Z" id="Fill-21" fill="#DBDAC6"/><path d="M756.9617,500.388088 L468,501.101129 L468,501.101129 L468,564.729184 C468,626.163668 517.888201,675.965099 579.429722,675.965099 L835.168735,675.965099 L902.228998,919 L1017,919 L951.698343,652.747072 C929.714508,563.112891 849.252131,500.160352 756.9617,500.388088 Z" id="Fill-27" fill="#696089"/><path d="M766.994528,500 L380,500 L380,500 L380,564.866537 C380,626.277202 429.861891,676.059325 491.370958,676.059325 L746.975102,676.059325 L698.003064,919 L831,919 L901.326101,679.433851 C923.104815,605.244572 880.617658,527.447142 806.428379,505.668427 C793.621185,501.908797 780.342152,500 766.994528,500 Z" id="Fill-29" fill="#696089"/><path d="M884.899444,572.512005 C909.518797,603.504674 916.734761,638.802468 906.489395,678.011257 L905.572106,681.495393 C895.663355,718.860558 878.589709,774.851804 854.344479,849.498461 L852.803666,854.237792 L845.196334,851.762208 L848.253532,842.34966 C872.406186,767.842725 889.240401,712.378997 898.749276,675.988743 C908.266786,639.565444 901.809654,607.149779 879.32166,578.359324 L878.635299,577.487995 L884.899444,572.512005 Z" id="Path-11" fill="#000" fill-rule="nonzero"/><g id="Chair-front" transform="translate(199.000000, 500.000000)"><path d="M516.905212,177.160734 L210.503626,177.160734 C202.575833,177.160734 197.181769,169.1195 200.191476,161.787001 L240.218355,64.2859289 L538.080175,48.7060387 L538.080175,0.00063441095 L97.63737,0.00063441095 L97.63737,44.5751001 L170.962759,60.1137589 L0.791675324,499.000634 L56.5269969,499.000634 L166.431477,244.022433 L463.739288,244.022433 L534,500 L589.735322,500 L516.905212,177.160734 Z" id="Chair" fill="#AF8358"/><polygon id="Stroke-7" fill="#000" fill-rule="nonzero" points="566.665072 172.19414 566.678865 180.194128 211.12576 180.807128 211.111968 172.80714"/></g></g></g><g id="Head" transform="translate(560.999650, 572.000000)" fill="#ffbf80"><path d="M173.4931,66.499221 C182.1061,110.758221 197.9031,184.720221 112.0001,190.645221 C47.3491,195.103221 34.1221,133.336221 28.0001,98.645221 C19.0001,47.645221 36.0001,13.645221 84.0001,2.64522101 C149.3581,-12.333779 168.3391,40.016221 173.4931,66.499221"/><path d="M140,217 L140,172 L66,172 L64,214 L-6.39488462e-13,246.644721 L37.2,279.966721 C78.318,316.799721 141.503,313.346721 178.363,272.252721 L201.333,246.644721 L140,217 Z" id="Neck"/></g><g id="Hair" transform="translate(403.999650, 378.000000) scale(1 1)"><g id="Hair/Pompadour 1" stroke="none" stroke-width="1" fill="none" fill-rule="evenodd"><path d="M255.980519,409.370546 C255.980519,409.370546 67.0772008,342.349782 113.291278,273.85075 C50.6123983,261.18306 53.1764838,186.725315 111.969206,204.150624 C111.969206,204.150624 49.874084,126.038396 154.909297,145.867005 C202.472748,55.7371674 302.22301,60.5448787 280.898626,106.81089 C320.382873,78.2106295 472.452263,59.3760672 454.631536,159.617793 C438.522052,250.239645 248.714128,211.961625 248.714128,211.961625 C248.714128,211.961625 245.410616,276.855152 196.526205,254.623244 C235.502305,296.483393 274.477293,388.064783 255.980519,409.370546" id="Hair" fill="#ffbf80"/></g></g><g id="Face" transform="translate(592.999650, 622.000000) scale(1 1)" fill="#000"><g id="Face/Mask" stroke="none" stroke-width="1" fill="none" fill-rule="evenodd"><path d="M149.887387,62 L39.3839494,62 L23.731044,62 L5.99614639,62 C3.78827551,62 2,63.795698 2,66.0104924 C2,68.2252869 3.78827551,70.0209849 5.99614639,70.0209849 L23.9608225,70.0209849 C24.2165758,74.5438177 24.6881211,78.764861 25.3454872,82.7061724 L5.99614639,82.7061724 C3.78827551,82.7061724 2,84.5018704 2,86.7166649 C2,88.9314593 3.78827551,90.7271573 5.99614639,90.7271573 L27.0268658,90.7271573 C39.2810487,138.580353 81.5602774,138 81.5602774,138 C139.953966,133.95826 151.304021,98.3350614 149.887387,62" id="Mask" fill="#73C8FF"/><path d="M138.007134,13.7702134 L145.857426,12.2297866 L147.549095,20.8795674 L148.018253,23.3396028 C150.609344,37.0644778 152.103078,47.4422921 152.719024,57.8208348 L152.76153,58.5622057 C153.98411,80.6614745 150.609705,98.5962452 141.031202,112.508343 C129.646431,129.04392 110.03365,138.785988 81.1510446,140.92809 L80.2729757,140.990675 L79.7270243,133.009325 C106.810648,131.156714 124.44055,122.497958 134.441949,107.971632 C142.846582,95.7644971 145.907418,79.4963265 144.773744,59.0041074 L144.689081,57.5786659 C144.070509,47.8319356 142.627723,37.9089558 140.153411,24.804129 L139.313239,20.428357 L138.007134,13.7702134 Z" id="Stroke-9" fill="#000" fill-rule="nonzero"/><path d="M86.4723645,29.1098949 C87.6716409,37.3704166 86.9786165,44.3213927 82.8096565,44.9575153 C78.6406965,45.593638 76.9764547,39.0035684 75.7771783,30.7430466 C74.577902,22.4825248 74.290862,15.6807503 78.4667031,15.0436195 C82.6435272,14.4054806 85.2730881,20.8493731 86.4723645,29.1098949" id="Eye-L" fill="#000"/><path d="M119.472365,28.1097699 C120.671641,36.3702923 119.978616,43.3212689 115.809656,43.9573917 C111.640696,44.5945225 109.976455,38.0034442 108.777178,29.7429218 C107.577902,21.4823993 107.290862,14.6816324 111.466703,14.0434934 C115.643527,13.4063625 118.273088,19.8492474 119.472365,28.1097699" id="Eye-R" fill="#000"/></g></g><g id="Torso" transform="translate(0.000000, 372.000000)"><mask id="mastercharactersitting-mask-2" fill="#ffffff"><use xlink:href="#mastercharactersitting-path-1" fill="#ffffff"/></mask><g id="Mask"/><g mask="url(#mastercharactersitting-mask-2)"><g transform="translate(100.000000, 288.000000) scale(1 1)" id="Upper Body"><g id="Upper Body/Dr 1" stroke="none" stroke-width="1" fill="none" fill-rule="evenodd"><g id="Group-36" transform="translate(279.000000, 100.000000)"><path d="M584.9268,307.8066 L488.3898,122.7726 C478.1708,103.1846 461.7518,87.5326 441.6988,78.2606 L378.5558,50.9646 L337.6078,30.4476 L303,100 L212.2858,36.8296 L181.4998,53.1726 L181.5378,52.9086 L125.8418,82.7196 C96.9688,98.1726 74.4278,123.2586 62.1388,153.6136 L14.6168,270.9916 C-8.6842,328.5456 -3.9322,393.6586 27.4778,447.2196 L113.5758,592.4786 L195,540 L431.351693,540 C440.049701,540 447.154452,533.051418 447.347742,524.355557 L452.1618,307.7776 L452.1618,307.7776 L452.2448,308.0646 L470.8838,338.5976 C500.0838,386.4316 548.0138,419.8206 603.0038,430.6336 L736.2898,456.8416 L757.2478,354.1766 L584.9268,307.8066 Z" id="Scrub-Color" fill="#52D6C0"/><polygon id="Stroke-10" fill="#000" fill-rule="nonzero" points="223.150612 43.3875516 314.233212 104.681452 309.766788 111.318548 218.684188 50.0246484"/><path d="M436.0171,535.7838 L436.0171,543.7838 L171.0171,543.7838 L171.0171,535.7838 L436.0171,535.7838 Z M446.989,502.5 L446.989,510.5 L131,510.5 L131,502.5 L446.989,502.5 Z" id="Stroke-15" fill="#000" fill-rule="nonzero"/><path d="M866.15503,457.285836 L866.15503,457.285836 C867.834485,453.505437 866.227626,449.07276 862.515489,447.248114 L825.308523,428.952892 L879.64051,437.331746 C884.099191,438.01978 888.254488,434.919832 888.864509,430.450315 C889.433356,426.285267 886.708306,422.380264 882.601768,421.478776 L829.718446,409.865617 L891.68816,406.856684 C896.765531,406.609642 900.727961,402.373082 900.637435,397.291377 C900.547013,392.44913 896.796953,388.466113 891.968791,388.086881 L830.080341,383.220796 L884.94542,371.188316 C889.53304,370.181726 892.465043,365.681871 891.529966,361.077998 C890.694573,356.967126 887.014942,354.057877 882.822806,354.195484 L825.334527,356.073223 L825.334527,356.073223 L806.143235,356.699497 C814.687867,347.948996 823.143651,338.22116 830.675193,327.720775 C833.011261,324.4648 832.574602,319.97578 829.70436,317.178134 C827.080076,314.619945 823.072139,314.12586 819.905012,315.971093 L774.496889,342.4393 C767.746565,346.373559 762.24337,351.952599 758.404462,358.532811 L727.675857,351.015355 L716.173217,414.314547 L815.368317,447.601341 L856.666652,461.460635 C860.432965,462.724018 864.542753,460.915625 866.15503,457.285836" id="Hand-color" fill="#ffbf80"/><path d="M829.715992,366.329905 L830.497106,370.492347 C830.559447,370.843039 830.645655,371.362043 830.74877,372.038373 L830.906707,373.114411 C831.064049,374.227739 831.218966,375.451933 831.365701,376.777976 C832.999724,391.54466 832.644047,407.557885 828.884977,422.720759 C827.868164,426.822255 826.614651,430.761872 825.109124,434.518561 L824.692266,435.538561 L823.153705,439.230828 L815.769172,436.153705 L817.307734,432.461439 C818.839223,428.786144 820.105356,424.888633 821.120039,420.795732 C824.617322,406.688818 824.953227,391.565751 823.414234,377.657853 L823.274613,376.449139 C823.156655,375.470263 823.035117,374.56307 822.913274,373.732932 L822.800361,372.985886 L822.592628,371.738942 L821.853686,367.807789 L829.715992,366.329905 Z M802.234856,352.773018 L810.232833,352.952937 L810.142873,356.951925 C809.758295,374.047693 804.515277,387.171208 795.977034,396.704511 C792.832718,400.215271 789.454369,402.986475 786.059058,405.101003 C784.853481,405.85181 783.724164,406.469338 782.697061,406.964097 L782.099529,407.243451 C781.857747,407.352754 781.648244,407.442475 781.473266,407.513515 L781.236976,407.606177 L777.492765,409.013615 L774.677888,401.525193 L778.456163,400.103821 L778.559884,400.060304 C778.744237,399.981904 778.967095,399.881057 779.225237,399.756709 C779.998425,399.384262 780.875147,398.904857 781.829919,398.310245 C784.607034,396.580717 787.401112,394.28878 790.017727,391.367221 C797.174631,383.376241 801.659479,372.307967 802.12549,357.491843 L802.144897,356.772006 L802.234856,352.773018 Z" id="Combined-Shape" fill="#000" fill-rule="nonzero"/><path d="M452.2447,308.0644 L519,899 L388,919 L322,491 L322,6 L377.7437,48.6904 L441.6987,78.2604 C461.7517,87.5324 478.1707,103.1844 488.3907,122.7724 L584.9267,307.8064 L757.2477,354.1764 L736.2897,456.8414 L603.0037,430.6334 C548.0147,419.8204 500.0837,386.4324 470.8837,338.5974 L452.2447,308.0644 Z" id="Fill-23" fill="#EFEED8"/><path d="M95.1748,562.6557 L27.4788,447.2187 C-3.9322,393.6577 -8.6842,328.5457 14.6168,270.9917 L62.1388,153.6137 C74.4278,123.2587 96.9688,98.1727 125.8418,82.7187 L181.5378,52.9087 L247,0 L296,492 L251,930 L84.6788,914.9607 L95.1748,562.6557 Z" id="Fill-25" fill="#EFEED8"/><polygon id="Stroke-28" fill="#000" fill-rule="nonzero" points="375.452614 62.8771646 383.327186 64.2882354 370.917 133.545 396.888938 161.819987 356.791882 249.824173 349.511918 246.507227 387.41 163.326 362.342935 136.036574"/><polygon id="Stroke-30" fill="#000" fill-rule="nonzero" points="181.683403 82.9322674 188.538197 78.8077326 218.953184 129.3561 196.791 169.372 254.49603 255.427268 247.85157 259.882732 187.426153 169.769934 209.716 129.522"/><polygon id="Stroke-32" fill="#000" fill-rule="nonzero" points="113.22111 597.751812 108.41129 591.359188 189.433 530.398 121.402998 396.116243 101.073894 355.984037 108.210506 352.368963 121.612 378.824 126.782661 254.607148 134.775739 254.939852 129.01 393.431 195.926 525.512 215.634268 510.684205 220.444132 517.076795"/><polygon id="Stroke-34" fill="#000" fill-rule="nonzero" points="444.129935 200.776544 495.153935 651.691544 487.204665 652.591056 436.180665 201.676056"/></g></g></g></g></g></g></svg>