<svg width="400" height="518" viewBox="0 0 400 518" fill="none" xmlns="http://www.w3.org/2000/svg">
<path d="M165.333 34.2667C164.267 34.6667 161.6 36.5333 159.6 38.5333C149.333 47.8667 144.667 71.4667 151.733 77.6C154.8 80.2667 163.333 83.0667 170 83.3333C177.067 83.7333 190.8 79.4667 194.267 75.7333C200.533 69.0667 197.333 50.9333 188.133 40.9333C182.4 34.6667 172.267 31.7333 165.333 34.2667ZM180.933 41.3333C186.267 44.5333 191.867 55.2 192.933 63.8667C193.6 69.6 193.333 70.5333 190.133 73.0667C184.667 77.3333 172.933 79.3333 164.133 77.6C160.267 76.8 156.267 75.0667 155.2 73.7333C150.933 68 154.8 50.2667 162 43.0667C167.2 37.8667 174.133 37.2 180.933 41.3333Z" fill="black"/>
<path d="M221.2 35.0667C216.133 37.3333 213.467 40 209.733 45.7333C206.4 51.2 202.667 63.0667 202.667 68.6667C202.667 82 236.8 88.5333 249.733 77.6C251.467 76 252 73.4667 252 66.6667C252 43.2 237.067 28 221.2 35.0667ZM239.467 43.3333C246.267 50.5333 250.133 66.8 246.667 73.3333C242.267 81.4667 210.667 78.6667 208.533 69.7333C207.067 64.2667 209.333 54.9333 213.733 48.4C218.667 41.0667 222.533 38.6667 229.867 38.6667C234 38.6667 235.867 39.6 239.467 43.3333Z" fill="black"/>
<path d="M114.667 56.1333C106.533 64.2667 108.267 91.4667 117.2 98.2667C121.6 101.6 134 99.4667 140.667 94.1334C148.267 88.1334 145.6 69.6 135.6 58.1333C132 53.8667 130.4 53.0667 124.933 52.8C119.333 52.4 118 52.8 114.667 56.1333ZM130.4 59.4667C138.267 64.9333 143.067 83.7334 138 89.3334C134.8 92.8 129.067 94.9334 123.867 94.4C120.133 94.1334 118.933 93.0667 116.8 88.6667C113.867 82.8 113.067 70.8 114.933 64.9333C117.467 58 124.667 55.3333 130.4 59.4667Z" fill="black"/>
<path d="M269.467 54.2667C266.4 55.8667 263.467 59.3334 260.4 64.6667C256.667 71.4667 256 74 256 81.4667C256 88.8 256.533 90.6667 259.067 92.9334C262.933 96.5334 271.333 100 276.267 100C284.933 100 288.133 95.4667 290.8 79.8667C292.267 70.8 292.267 68.9334 290.133 63.6C288.933 60.4 286.933 56.8 285.6 55.6C281.867 52.1334 274.533 51.6 269.467 54.2667ZM280.667 58.1334C288.133 61.0667 288.8 84 281.6 92.2667C278.133 96.4 268.133 94.8 262.667 89.3334C257.733 84.4 260 71.6 267.6 62.6667C272.133 57.4667 275.6 56.2667 280.667 58.1334Z" fill="black"/>
<path d="M84 83.3334C77.4667 85.7334 75.4667 89.4667 75.6 99.0667C75.7333 103.6 76 108.533 76.4 110C76.8 111.467 77.2 113.067 77.2 113.6C77.3333 114.133 79.2 116.667 81.4667 119.333C91.2 130.4 106.4 127.333 110.533 113.333C112.933 104.933 108 89.8667 101.333 85.2C96.8 82 89.6 81.2 84 83.3334ZM97.4667 88.8C102 91.0667 106.533 99.7334 106.667 105.733C106.667 111.467 103.2 118.533 99.4667 120.267C96.8 121.333 94.6667 121.333 90.5333 120.133C86.1333 118.8 84.6667 117.467 82.5333 112.933C79.8667 106.8 79.2 96 81.4667 91.8667C84.1333 86.8 91.0667 85.4667 97.4667 88.8Z" fill="black"/>
<path d="M304.667 82.2667C295.2 84.5334 287.333 102.267 290.8 113.067C295.333 127.467 308.267 130.4 318.933 119.733C321.867 116.8 323.867 114.133 323.467 113.733C323.067 113.2 323.467 112 324.267 110.933C325.2 109.867 326 105.333 326 100.8C326 94 325.467 91.8667 322.667 88.4C318 82.5334 312.133 80.5334 304.667 82.2667ZM317.467 90.5334C321.733 94.8 322.4 99.6 319.867 108.267C317.6 116.533 313.467 120.4 306.667 120.533C301.467 120.667 300.533 120.133 297.733 116.133C293.733 110.267 293.733 102.4 297.733 95.3334C302.933 86.1334 311.067 84.1334 317.467 90.5334Z" fill="black"/>
<path d="M57.7333 114.933C56.1333 115.733 54.1333 117.867 53.3333 119.867C52.6667 121.733 49.8667 126.933 47.3333 131.333C43.3333 138.133 42.6667 140.267 43.3333 145.067C44.1333 151.867 47.0667 158.133 50.5333 159.867C54.9333 162.267 67.0667 163.067 73.3333 161.333C81.0667 159.2 88.8 151.6 90 144.8C91.3333 138.133 88.1333 131.333 79.6 122.667C70.6667 113.467 64.9333 111.467 57.7333 114.933ZM72.1333 121.467C77.7333 125.333 85.3333 137.2 85.3333 141.733C85.3333 152.8 70 160.933 56.8 157.067C51.2 155.333 48 150.267 48 143.067C48 139.333 52.5333 129.467 57.6 122.267C60.8 117.733 66.5333 117.467 72.1333 121.467Z" fill="black"/>
<path d="M330 114.933C320.8 120.4 308.8 138.133 310.267 144C311.867 150 316.133 155.733 321.067 158.8C324.933 161.2 328 161.867 335.333 161.867C347.733 162 351.6 160.8 354.667 155.6C358.4 149.6 358 142.133 353.733 133.333C351.6 129.333 349.6 125.333 348.933 124.667C348.4 123.867 346.533 121.2 344.933 118.667C342.533 114.933 340.933 113.867 337.333 113.733C334.8 113.467 331.467 114 330 114.933ZM345.333 127.333C352.8 139.467 353.867 143.6 351.733 150C349.467 157.067 343.2 159.333 332.133 157.333C322.933 155.733 316 149.333 316 142.533C316 133.067 328.933 118.267 336.533 118.933C339.733 119.2 341.333 120.8 345.333 127.333Z" fill="black"/>
<path d="M39.2 164.133C36.1333 164.8 32.8 166.4 31.7333 167.733C29.7333 170 26.6667 179.067 25.7333 185.2C25.4667 187.067 24.6667 189.467 24 190.8C22.1333 194.267 22 204.267 23.8667 207.733C26.6667 212.933 32.9333 215.2 46.9333 215.733C58.5333 216.267 60.2667 216 63.8667 213.467C67.6 210.667 71.3333 205.067 72.9333 199.333C74.5333 194 74.8 179.2 73.4667 175.733C72.2667 172.533 63.0667 166.133 59.3333 166C58.6667 166 57.4667 165.6 56.6667 165.067C53.8667 163.467 44.5333 162.933 39.2 164.133ZM60.1333 171.6C64.1333 173.733 68.1333 176.8 68.9333 178.667C71.4667 183.733 70.9333 191.733 67.6 200C63.6 210 58.9333 212.4 45.6 211.467C34.8 210.667 28.6667 208.133 27.3333 204C26.2667 200.533 27.7333 191.067 30.1333 186.4C31.2 184.4 32 181.6 32 180C32 174.933 35.7333 169.6 39.6 168.933C48.8 167.6 53.2 168.133 60.1333 171.6Z" fill="black"/>
<path d="M344.933 165.933C339.467 167.4 335.467 169.533 331.733 173.133L326.267 178.2L327.067 189.933C327.733 202.867 329.867 208.333 336.133 213.667C339.867 216.733 341.333 217 352 217C365.067 217 370.933 215.133 376 209.533C377.867 207.533 378.4 206.333 377.333 206.867C376.267 207.4 376.4 207 377.733 205.933C379.733 204.2 380 203.4 378.667 201C377.867 199.4 377.467 197.267 377.867 196.2C378.4 194.867 378.133 194.6 377.067 195.133C376 195.8 375.867 195.4 376.4 193.933C376.933 192.6 376.4 191.267 374.933 190.467C373.6 189.667 373.333 189 374.4 189C375.2 189 376 188.333 376 187.533C376 186.867 375.467 186.467 374.8 186.867C374.133 187.267 373.6 185.933 373.6 183.933C373.6 177.4 369.2 167.533 365.733 166.2C359.6 163.933 352.667 163.8 344.933 165.933ZM362.133 169.8C366 170.867 367.467 174.6 370.8 191.267L373.733 205.533L370.267 208.467C367.867 210.467 364.267 211.667 358.133 212.333C344.267 213.8 338.133 211.533 334 203.533C331.467 198.733 330.133 185 331.867 180.733C334.933 172.733 351.2 166.867 362.133 169.8Z" fill="black"/>
<path d="M38 306.8C35.0667 307.467 30.9333 309.467 28.9333 311.2C25.4667 314 25.0667 315.2 24.9333 322.133C24.8 331.733 26.2667 340.533 28 341.067C28.8 341.333 29.3333 342.267 29.3333 343.2C29.3333 344.133 31.2 346.533 33.4667 348.8C37.2 352.4 38.2667 352.667 47.7333 352.667C56.4 352.533 59.0667 352 64.9333 348.8C74.2667 343.733 77.7333 334.533 74.1333 324.4C73.0667 321.333 72.5333 318.667 72.8 318.267C73.0667 318 71.0667 315.2 68.2667 312C63.3333 306.4 63.2 306.267 53.3333 305.867C47.8667 305.6 40.9333 306 38 306.8ZM64.2667 314.267C68.9333 319.067 70.6667 324 70.6667 331.867C70.6667 337.067 70 338.8 67.0667 341.467C64.9333 343.333 61.6 345.6 59.6 346.4C54.1333 348.667 41.2 348.4 37.6 345.867C33.0667 342.8 30.4 336.4 31.0667 330.667C31.3333 327.733 31.0667 324.933 30.2667 324.133C28 321.867 30.5333 316 35.0667 313.333C38.4 311.2 41.7333 310.667 50.1333 310.667C60.1333 310.667 61.0667 310.933 64.2667 314.267Z" fill="black"/>
<path d="M338.667 307.733C332 311.067 327.867 319.6 327.467 331.067C327.067 339.867 327.2 340.4 331.467 344.533C339.867 352.667 357.867 355.867 366.133 350.8C370.533 348.133 375.333 339.6 373.867 337.067C373.333 336.267 373.467 336 374.267 336.4C375.067 336.933 376 336.4 376.533 335.333C376.933 334 376.4 333.333 374.933 333.333C372.933 333.2 372.933 333.067 374.8 332C376.4 331.067 377.067 328.667 377.067 323.333C377.067 317.067 376.533 315.333 373.6 312.133C367.333 305.467 348 303.067 338.667 307.733ZM368.533 314.533C372.8 318.533 373.867 326 371.2 334.667C368.133 345.067 364.533 348 354.8 348C342.133 348 332.8 342.933 331.467 335.333C330.133 328.533 333.733 316.933 338.4 313.333C341.6 310.667 343.2 310.4 353.6 310.933C363.467 311.333 365.733 312 368.533 314.533Z" fill="black"/>
<path d="M60 355.2C51.3333 358 49.8667 360.133 48 373.333C45.6 389.467 52.1333 398.667 66.4 399.733C73.6 400.267 74.4 400 79.7333 395.333C82.8 392.667 85.3333 389.6 85.3333 388.533C85.3333 387.467 85.8667 386.667 86.5333 386.667C87.2 386.667 88.4 384.8 89.3333 382.667C90.2667 380.4 91.4667 378.667 92 378.667C94 378.667 92.5333 368.533 90 364.667C83.3333 354.667 72.2667 351.067 60 355.2ZM81.4667 361.467C86.4 364.933 89.7333 371.333 88.8 375.333C87.4667 380.4 77.4667 392.133 72.6667 394.133C66.4 396.667 59.2 394.267 54.9333 388C52.2667 384 51.8667 382.133 52.4 376C53.6 362 56.8 358.933 69.7333 358.8C75.6 358.667 78.5333 359.333 81.4667 361.467Z" fill="black"/>
<path d="M323.333 354.933C317.6 356.933 313.333 361.2 310.533 367.733C308.133 373.333 308.133 373.6 310.667 378.4C312 381.067 314.133 385.2 315.2 387.467C317.067 391.2 324.133 398.4 326.4 398.8C338.4 401.067 348.267 398 351.867 390.8C355.2 384.4 354.8 369.333 351.2 362.133C349.067 357.6 347.733 356.533 342 355.067C334.133 353.067 328.8 353.067 323.333 354.933ZM343.6 360.667C349.2 364.533 351.6 379.6 347.867 387.333C345.333 392.667 340.667 394.933 332.933 394.267C325.467 393.6 321.2 390.267 316.533 381.067C312.267 372.533 312.533 370.4 318.4 364C323.467 358.8 323.867 358.667 332.133 358.667C337.6 358.667 341.733 359.333 343.6 360.667Z" fill="black"/>
<path d="M95.0667 392.933C91.3333 393.6 83.7333 400.933 81.6 405.733C78 414.133 80.8 431.333 86.5333 435.6C87.7333 436.533 91.7333 437.333 95.6 437.333C101.6 437.333 103.067 436.8 107.067 432.933C113.867 426.533 117.2 413.733 114.533 404C114.267 403.067 111.733 399.867 109.067 397.067C104.267 392.133 102.4 391.467 95.0667 392.933ZM106.133 400.533C110.133 404.533 110.667 405.867 110.667 412.133C110.667 421.467 107.467 427.733 100.933 431.067C96.8 433.2 95.3333 433.333 92.1333 432C87.2 430 85.3333 425.6 85.3333 416.533C85.3333 407.733 88 402.133 93.7333 398.667C99.4667 395.067 100.933 395.333 106.133 400.533Z" fill="black"/>
<path d="M296 393.733C294.267 394.667 291.333 397.733 289.6 400.667C287.2 405.067 286.667 407.333 287.2 413.333C288.667 430.267 294.533 437.333 306.933 437.333C316.8 437.333 321.467 430.933 321.467 417.2C321.6 405.867 317.6 398 310.4 394.667C303.733 391.6 300.533 391.467 296 393.733ZM308.133 398.133C315.867 402 319.6 416.133 315.467 426C312.667 432.533 309.067 434.133 302.133 431.467C295.467 428.933 292.533 424.4 291.2 415.067C290.533 409.333 290.8 407.333 293.333 403.467C298 395.867 301.333 394.533 308.133 398.133Z" fill="black"/>
<path d="M120.4 427.867C118 436.533 118.533 449.467 121.867 455.733C126.533 464.8 138.267 467.733 145.333 461.467C150 457.2 153.6 447.2 153.867 437.467C154 430.933 153.6 430 150 427.333C145.333 423.867 135.6 421.067 127.867 420.8L122.533 420.667L120.4 427.867ZM138.933 427.467C148 430.533 149.867 433.2 148.933 441.733C147.467 456 139.467 463.067 130.8 457.867C125.6 454.8 124 450 124 438.133C124 424.8 126.4 423.067 138.933 427.467Z" fill="black"/>
<path d="M266 422.133C262.4 423.2 256.667 425.467 253.467 427.067L247.733 429.867L248.4 438C250.4 458.933 254 464.8 265.333 464.533C278.533 464.4 283.2 457.333 282.4 438.133C282.133 428.133 281.467 425.067 279.467 422.8C276.533 419.6 275.067 419.467 266 422.133ZM277.067 428.667C279.067 432.933 279.067 445.333 277.2 450.267C273.733 459.6 264.933 462.933 258.933 457.333C255.2 453.867 251.467 441.2 252.667 436C253.6 431.6 257.867 428.8 266.267 426.8C274.267 424.933 275.467 425.067 277.067 428.667Z" fill="black"/>
<path d="M164.8 439.333C163.6 440.533 162.533 443.067 162.4 445.067C162.4 447.067 162.133 450.4 161.867 452.667C161.067 462.8 165.867 473.333 172.933 477.067C176.4 478.933 184.133 478.133 188.4 475.467C195.067 471.067 200.267 452.533 197.2 444.4C195.6 440.133 188.667 437.733 177.067 437.467C169.333 437.333 166.4 437.733 164.8 439.333ZM189.733 444.133C192.933 445.6 193.333 446.533 193.333 451.867C193.333 464.4 184.4 475.467 176.533 472.667C170.4 470.4 167.733 465.333 166.933 454.533C166.4 446.133 166.667 444.667 168.8 443.067C171.733 440.8 183.867 441.333 189.733 444.133Z" fill="black"/>
<path d="M209.2 440.4L204.667 443.333L205.067 453.333C205.467 464.933 209.467 473.333 215.867 476.133C218 477.067 219.467 478.4 219.2 478.933C218.8 479.467 220 479.467 221.733 478.8C223.6 478 225.333 477.867 225.733 478.267C227.067 479.6 234.667 473.2 236.933 468.933C239.733 463.6 240.267 442.8 237.6 439.733C236.267 438.133 233.2 437.6 224.8 437.6C215.6 437.6 212.933 438 209.2 440.4ZM233.333 444C238.933 449.6 235.067 468 227.333 471.6C217.733 476.133 209.333 467.467 209.333 453.067C209.333 445.067 209.867 444.133 216.533 442.533C224.533 440.667 230.533 441.2 233.333 444Z" fill="black"/>
</svg>
