<svg version="1.1" xmlns="http://www.w3.org/2000/svg" viewBox="0 0 483 1913">
<path d="M0 0 C1.35279808 -0.01058945 1.35279808 -0.01058945 2.73292542 -0.02139282 C40.65979482 -0.25083645 40.65979482 -0.25083645 57.3046875 3.203125 C58.79524658 3.50911621 58.79524658 3.50911621 60.31591797 3.82128906 C94.02834073 10.95086716 126.55438285 22.99465015 153.3046875 45.203125 C154.62726563 46.29560547 154.62726563 46.29560547 155.9765625 47.41015625 C180.78192113 68.78744513 193.14708535 99.45118756 195.78125 131.51953125 C197.69099006 159.97040311 194.13535086 189.06980183 185.3046875 216.203125 C186.14257812 215.87957031 186.98046875 215.55601562 187.84375 215.22265625 C195.30194981 213.0256019 205.39369421 212.67407379 212.6015625 216.04296875 C220.98993701 221.7570679 224.43149109 230.64141979 226.5546875 240.203125 C229.68947037 260.19795631 226.39671733 280.53785573 215.6796875 297.82421875 C213.99876194 300.09104385 212.23214142 302.14145766 210.3046875 304.203125 C209.42167969 305.15316406 208.53867187 306.10320312 207.62890625 307.08203125 C197.12550076 318.0530054 197.12550076 318.0530054 189.3046875 319.203125 C186.63743595 319.24470725 183.97244295 319.21659851 181.3046875 319.203125 C181.01859619 320.06776367 180.73250488 320.93240234 180.43774414 321.82324219 C165.63656536 366.32429078 144.84167841 411.04741139 101.26513672 434.29101562 C98.23685349 435.79367244 95.19329205 437.20951517 92.09765625 438.5703125 C88.8227815 440.48485466 87.96236516 441.82624275 86.3046875 445.203125 C84.53786968 455.39767228 85.18199998 466.25312565 85.2421875 476.578125 C85.24722019 478.10416517 85.25177992 479.63020698 85.25585938 481.15625 C85.26670731 484.83857654 85.28387096 488.52083969 85.3046875 492.203125 C85.88444336 492.12876221 86.46419922 492.05439941 87.06152344 491.9777832 C115.27999588 488.71603033 146.12998208 493.43407688 173.3046875 501.203125 C174.45469238 501.53135254 174.45469238 501.53135254 175.62792969 501.86621094 C197.29443732 508.22135089 216.265065 518.34942007 233.3046875 533.203125 C234.38556641 534.13898438 234.38556641 534.13898438 235.48828125 535.09375 C253.92290735 552.19878318 258.05010116 577.47884706 260.3046875 601.265625 C260.38739899 602.11218658 260.47011047 602.95874817 260.55532837 603.83096313 C262.55594472 624.35829166 263.95584065 644.93393482 265.14696312 665.52273846 C265.2425185 667.14661772 265.34087694 668.77033985 265.44445229 670.3937273 C266.60443597 688.60798371 266.48638877 706.85112701 266.50487614 725.09361339 C266.50784713 727.88804418 266.51195905 730.68247125 266.51638031 733.4769001 C266.53001809 742.31464771 266.53969618 751.15238633 266.5435822 759.99014372 C266.54758082 769.02269197 266.55973724 778.05513388 266.5859375 787.08764648 C266.70873084 830.37978131 266.79170188 873.52179966 263.49315643 916.71643448 C263.3152894 919.06324179 263.1456311 921.41044623 262.9800415 923.75814819 C262.40096912 931.95622643 261.7330497 940.14314482 260.9921875 948.328125 C260.88897186 949.49632782 260.78575623 950.66453064 260.67941284 951.86813354 C257.06725036 992.65874108 252.12857684 1033.25670058 245.75244141 1073.70654297 C240.91586677 1104.43443257 243.49208679 1131.213359 252.59619141 1160.70214844 C255.87328847 1172.2702333 255.15397394 1182.62653802 249.3046875 1193.203125 C245.20626775 1199.75836313 239.61466396 1205.06673474 234.09960938 1210.42358398 C231.43926282 1213.01339104 229.01470402 1215.56650621 226.7578125 1218.515625 C222.55057288 1223.50848318 216.90679578 1226.84153453 211.48120117 1230.36669922 C209.60440914 1231.58642968 207.73813833 1232.82106221 205.87304688 1234.05859375 C194.8081397 1241.35022444 194.8081397 1241.35022444 187.6171875 1241.265625 C186.62332031 1241.25660156 185.62945312 1241.24757813 184.60546875 1241.23828125 C183.84621094 1241.22667969 183.08695312 1241.21507812 182.3046875 1241.203125 C180.63765125 1237.19013853 179.64349773 1234.5835072 180.3046875 1230.203125 C184.97903585 1219.36626841 194.1949126 1211.55995601 203.3046875 1204.453125 C207.73004461 1200.88632505 210.03331746 1198.77759363 211.3046875 1193.203125 C211.77215335 1185.73836075 210.84666875 1178.45647871 209.8046875 1171.078125 C209.66160156 1170.02625 209.51851563 1168.974375 209.37109375 1167.890625 C209.02154253 1165.32724938 208.66598344 1162.76486692 208.3046875 1160.203125 C207.17778237 1161.45167393 206.05647275 1162.70527449 204.9375 1163.9609375 C204.31246582 1164.65848145 203.68743164 1165.35602539 203.04345703 1166.07470703 C197.82387467 1172.46396834 196.19752915 1180.71437591 194.22998047 1188.55615234 C192.6722567 1194.56862602 190.78114517 1200.72666733 186.3046875 1205.203125 C184.28125 1205.57421875 184.28125 1205.57421875 181.9296875 1205.640625 C181.15882813 1205.68058594 180.38796875 1205.72054688 179.59375 1205.76171875 C177.3046875 1205.203125 177.3046875 1205.203125 175.125 1203.2421875 C172.74323415 1199.26576297 172.16236496 1195.68946077 171.5546875 1191.140625 C171.43327393 1190.29443604 171.31186035 1189.44824707 171.18676758 1188.57641602 C169.03648544 1172.70427713 170.65102352 1161.13833912 178.6796875 1147.203125 C191.95035104 1123.86097573 192.37748727 1101.36603309 192.85546875 1075.11328125 C192.87628321 1074.0043709 192.89709766 1072.89546055 192.91854286 1071.75294685 C193.55220094 1036.90137297 193.4921396 1002.0424396 193.48979867 967.18638861 C193.49010102 960.57956355 193.49824177 953.97277974 193.51049805 947.3659668 C193.67505163 856.59906527 193.43925245 766.05586697 178.25331116 666.36624146 C178.07510362 665.20831652 177.89689608 664.05039158 177.71328831 662.85737801 C177.57845004 661.98147451 177.44361177 661.10557102 177.3046875 660.203125 C176.02826877 692.34493209 174.86580799 724.48760161 173.87842343 756.63955937 C173.70584225 762.24450137 173.53093777 767.84937105 173.35636622 773.45425135 C173.05264569 783.21532779 172.75031629 792.97644648 172.44897079 802.73759651 C172.12659791 813.17969173 171.80336811 823.62175994 171.47911644 834.063797 C171.45842155 834.73026028 171.43772665 835.39672356 171.41640464 836.08338269 C171.31082244 839.4834486 171.20522632 842.88351408 171.09962512 846.2835794 C170.34057507 870.72374856 169.58335573 895.16397415 168.82713127 919.60423088 C168.07892509 943.78512388 167.32985717 967.96598994 166.5796833 992.14682198 C166.55626944 992.90154654 166.53285557 993.6562711 166.50873219 994.4338661 C166.27094575 1002.09866465 166.03314242 1009.76346268 165.79532813 1017.42826037 C165.28761565 1033.79195842 164.78003083 1050.15566043 164.27250767 1066.51936436 C164.2483218 1067.29916802 164.22413593 1068.07897169 164.19921716 1068.88240577 C163.02596924 1106.71071778 161.85409468 1144.53907232 160.68237305 1182.36743164 C160.27643508 1195.47285991 159.87049398 1208.57828809 159.46453857 1221.68371582 C159.43936243 1222.4964771 159.41418629 1223.30923837 159.38824723 1224.14662878 C158.21699851 1261.95789134 157.04501835 1299.76913122 155.87280193 1337.5803638 C155.79665185 1340.03667655 155.72050224 1342.49298931 155.64435272 1344.94930208 C154.520836 1381.18988549 153.39715627 1417.43046384 152.27332335 1453.67103744 C152.175778 1456.81661546 152.07823325 1459.96219349 151.98068852 1463.10777152 C151.85928312 1467.02279654 151.73787741 1470.93782155 151.61647171 1474.85284656 C151.59250657 1475.62566192 151.56854143 1476.39847727 151.54385008 1477.19471127 C151.27941117 1485.72219515 151.01496846 1494.2496789 150.75051684 1502.77716238 C149.62260197 1539.14790112 148.49518786 1575.51865531 147.36865199 1611.88943679 C147.2769251 1614.85087365 147.18519761 1617.8123105 147.0934695 1620.77374732 C147.05958391 1621.86774335 147.05958391 1621.86774335 147.02501376 1622.9838403 C146.69031712 1633.78939589 146.35551551 1644.59494821 146.0206176 1655.40049756 C145.99904605 1656.09651016 145.9774745 1656.79252276 145.95524926 1657.50962666 C145.74102732 1664.42149944 145.52678992 1671.33337173 145.31253176 1678.24524339 C145.20796966 1681.61838794 145.10341206 1684.99153264 144.9988575 1688.36467743 C144.96811865 1689.35637332 144.96811865 1689.35637332 144.93675881 1690.36810346 C144.59428152 1701.41745478 144.25220997 1712.46681863 143.91025333 1723.51618608 C143.61184496 1733.15755687 143.31306981 1742.79891626 143.01400627 1752.44026676 C142.84397254 1757.92226192 142.67409487 1763.40426177 142.50467717 1768.886276 C142.18493598 1779.22947189 141.86325306 1789.5725969 141.53438275 1799.91550702 C141.38422413 1804.64723961 141.23853341 1809.379076 141.09726377 1814.11108209 C141.03365219 1816.22225227 140.96806691 1818.33334948 140.90154988 1820.44442994 C140.82321507 1822.93229058 140.74806906 1825.42025474 140.67688003 1827.90833011 C140.64225659 1828.97417674 140.60763315 1830.04002338 140.57196051 1831.13816839 C140.53031668 1832.51018317 140.53031668 1832.51018317 140.48783157 1833.90991542 C140.3046875 1836.203125 140.3046875 1836.203125 139.3046875 1839.203125 C139.92512939 1839.32324951 140.54557129 1839.44337402 141.18481445 1839.56713867 C152.0757284 1841.96863703 162.18413293 1846.34620478 172.4921875 1850.515625 C176.75198559 1852.22616918 181.01433626 1853.93028434 185.27734375 1855.6328125 C186.94950958 1856.30143562 186.94950958 1856.30143562 188.65545654 1856.98356628 C197.38549052 1860.46400115 206.14796691 1863.85350053 214.92578125 1867.2109375 C216.23397705 1867.71195371 217.54215887 1868.21300642 218.85032654 1868.71409607 C223.97432701 1870.67586094 229.09857105 1872.6368886 234.22885132 1874.58218384 C237.80083444 1875.93782713 241.36937682 1877.30220483 244.9375 1878.66796875 C246.53282814 1879.26842514 246.53282814 1879.26842514 248.16038513 1879.88101196 C262.02390538 1885.20874683 262.02390538 1885.20874683 265.3046875 1891.203125 C266.56538919 1899.05127699 265.02211045 1905.33441875 261.3046875 1912.203125 C252.29379653 1913.24253715 243.32521541 1913.36425406 234.26757812 1913.38012695 C232.67791094 1913.38640586 231.08824517 1913.39305387 229.49858093 1913.40003967 C224.3193765 1913.42089634 219.14017235 1913.43141819 213.9609375 1913.44140625 C212.16852301 1913.44545938 210.37610866 1913.44957646 208.58369446 1913.45375633 C200.16621165 1913.47276007 191.7487374 1913.48700637 183.33123732 1913.4953683 C173.64676805 1913.5051514 163.96252666 1913.53151912 154.27813768 1913.57186919 C146.76697621 1913.60208192 139.25587998 1913.61684167 131.74465895 1913.62014931 C127.26914767 1913.62249191 122.79388125 1913.63135068 118.31843567 1913.65661049 C114.10919839 1913.67999004 109.90036563 1913.68408509 105.69108009 1913.67384911 C104.15407269 1913.6733562 102.61704463 1913.67960379 101.08009911 1913.69340515 C88.04717166 1913.80381637 77.64268017 1911.4907851 67.3046875 1903.203125 C61.21562371 1896.95382268 59.30482103 1889.22091975 59.01252896 1880.74121016 C58.9741747 1879.67641522 58.93582045 1878.61162027 58.89630395 1877.51455881 C58.85967084 1876.37079562 58.82303773 1875.22703242 58.78529453 1874.04860973 C58.74403357 1872.84753791 58.7027726 1871.64646608 58.66026131 1870.40899814 C58.23821972 1857.83300752 57.91702579 1845.25471302 57.61497498 1832.67536926 C57.55238032 1830.12125217 57.48964029 1827.56713864 57.42676979 1825.01302832 C57.27406409 1818.79803113 57.1231739 1812.58299115 56.97289868 1806.36793476 C56.79234394 1798.90403993 56.60978814 1791.44019434 56.42725238 1783.97634774 C55.98626484 1765.9396644 55.54889886 1747.9028938 55.11232433 1729.86610318 C54.96734371 1723.87632642 54.82225462 1717.88655229 54.67709851 1711.89677978 C53.90129934 1679.88298474 53.12661197 1647.86916301 52.35528469 1615.8552599 C52.17705809 1608.45860061 51.99881583 1601.0619417 51.82055664 1593.6652832 C51.78734701 1592.28720479 51.78734701 1592.28720479 51.75346648 1590.8812864 C51.03821256 1561.20272273 50.31646713 1531.52432177 49.5909342 1501.84600773 C48.84186333 1471.20372927 48.0985555 1440.5613165 47.36255399 1409.9187212 C47.25791251 1405.56210715 47.15321237 1401.20549452 47.04847908 1396.84888268 C47.02787832 1395.99184044 47.00727757 1395.13479821 46.98605254 1394.251785 C46.69895668 1382.31344091 46.40800545 1370.37519634 46.11397569 1358.4370211 C45.62121796 1338.42936072 45.13569906 1318.4215408 44.66577148 1298.41333008 C44.63941665 1297.29219973 44.63941665 1297.29219973 44.6125294 1296.14842028 C43.556467 1251.16316485 42.82573681 1206.20201224 43.3046875 1161.203125 C31.0946875 1161.203125 18.8846875 1161.203125 6.3046875 1161.203125 C6.34234726 1164.82380447 6.38000702 1168.44448395 6.41880798 1172.17488098 C6.74383654 1214.5014294 5.94518931 1256.79971615 4.94360352 1299.11206055 C4.92597051 1299.85764172 4.9083375 1300.60322288 4.89017016 1301.37139742 C4.41812001 1321.31209709 3.92826044 1341.25235002 3.43329901 1361.19249238 C3.1386731 1373.06764192 2.84836936 1384.94289155 2.56089592 1396.81821632 C2.54024584 1397.67115229 2.51959577 1398.52408825 2.49831993 1399.40287075 C2.39338285 1403.73790017 2.28850597 1408.07293104 2.18365025 1412.40796242 C1.44658127 1442.87526073 0.7012187 1473.34235085 -0.04907227 1503.80932617 C-0.77466148 1533.27372657 -1.49570833 1562.73823303 -2.21118164 1592.20288086 C-2.23330942 1593.11409033 -2.25543719 1594.02529979 -2.27823551 1594.96412167 C-2.4784776 1603.21008018 -2.67868434 1611.45603955 -2.87886104 1619.70199965 C-3.6681186 1652.21198993 -4.46080726 1684.72189674 -5.25428172 1717.23178435 C-5.31647269 1719.78006605 -5.37864885 1722.32834811 -5.44082054 1724.87663028 C-5.91693977 1744.39118177 -6.39402031 1763.90570905 -6.87435799 1783.42015722 C-6.91163424 1784.93464262 -6.9489093 1786.44912805 -6.98618317 1787.96361351 C-7.01357077 1789.07640147 -7.01357077 1789.07640147 -7.04151166 1790.21167 C-7.16672045 1795.3017355 -7.29125223 1800.39181726 -7.41547585 1805.48190689 C-7.48326396 1808.25743974 -7.55109852 1811.03297145 -7.61897278 1813.8085022 C-7.63535906 1814.47871713 -7.65174535 1815.14893206 -7.66862819 1815.83945653 C-7.92333674 1826.24527386 -8.18869019 1836.65078464 -8.46212672 1847.05612608 C-8.60837115 1852.66246533 -8.74287984 1858.26873201 -8.85632242 1863.87583091 C-8.90192953 1866.06674334 -8.95317095 1868.25742974 -9.00714403 1870.44815046 C-9.06609493 1872.86028454 -9.11579003 1875.27268092 -9.15207714 1877.68526238 C-9.4230119 1887.5814964 -11.22389584 1896.80291984 -18.49609375 1903.98046875 C-29.00788261 1913.07018746 -41.56237161 1913.79395148 -54.86767578 1913.6730957 C-56.44778589 1913.67360579 -58.02789624 1913.67586971 -59.60800171 1913.67973328 C-63.8600751 1913.68510744 -68.11170518 1913.66586292 -72.36369944 1913.64163232 C-76.83480787 1913.62017635 -81.30591736 1913.6209245 -85.77706909 1913.61894226 C-93.28000408 1913.61251523 -100.78277483 1913.59134665 -108.28564453 1913.55981445 C-117.89007185 1913.5195009 -127.49439244 1913.50211647 -137.09889412 1913.49250507 C-145.39286334 1913.48417732 -153.68681041 1913.46695609 -161.9807601 1913.44746757 C-163.75236494 1913.44343042 -165.52397048 1913.43968909 -167.29557657 1913.4362452 C-172.34772093 1913.42640103 -177.39980301 1913.41179128 -182.45190811 1913.3894062 C-183.97599732 1913.38333606 -185.5000939 1913.37885728 -187.02419281 1913.37616348 C-210.52867925 1913.33075638 -210.52867925 1913.33075638 -213.2815876 1910.66988087 C-216.79989744 1905.18500756 -216.77859967 1897.42406087 -215.6953125 1891.203125 C-211.42104302 1882.99006649 -198.44534934 1880.22143404 -190.2578125 1877.04296875 C-189.27873932 1876.6599913 -188.29966614 1876.27701385 -187.29092407 1875.88243103 C-184.09346186 1874.6323903 -180.8943922 1873.38651972 -177.6953125 1872.140625 C-175.45479092 1871.26545525 -173.21439586 1870.38996151 -170.97412109 1869.51416016 C-166.28889906 1867.68283057 -161.60312813 1865.85291546 -156.91699219 1864.02392578 C-146.17450579 1859.82969684 -135.43920357 1855.61714507 -124.70361328 1851.40530396 C-121.36378803 1850.0951793 -118.02372776 1848.78565562 -114.68359375 1847.47631836 C-112.63801951 1846.67431979 -110.59244652 1845.87231801 -108.546875 1845.0703125 C-107.15500473 1844.52478981 -107.15500473 1844.52478981 -105.73501587 1843.96824646 C-104.87709442 1843.63180618 -104.01917297 1843.29536591 -103.13525391 1842.94873047 C-102.35015442 1842.64255798 -101.56505493 1842.3363855 -100.75616455 1842.02093506 C-99.10175793 1841.36441516 -97.46277997 1840.66907657 -95.82958984 1839.96142578 C-93.6953125 1839.203125 -93.6953125 1839.203125 -89.6953125 1839.203125 C-89.93414263 1838.38322817 -89.93414263 1838.38322817 -90.17779762 1837.54676777 C-90.76415103 1834.89137954 -90.89110235 1832.42386211 -90.97555065 1829.70484066 C-91.01274507 1828.57570181 -91.04993949 1827.44656296 -91.08826101 1826.28320777 C-91.1248116 1825.03796683 -91.1613622 1823.79272588 -91.19902039 1822.50975037 C-91.24155012 1821.16731004 -91.28446365 1819.82488183 -91.32772601 1818.48246491 C-91.44654543 1814.76050064 -91.55986341 1811.03838548 -91.67235221 1807.31622525 C-91.79620108 1803.2501584 -91.92513093 1799.18425218 -92.05341625 1795.11832333 C-92.27988042 1787.91811561 -92.5030446 1780.71781123 -92.7241478 1773.51743698 C-93.05951352 1762.59679908 -93.39999834 1751.67632472 -93.74144027 1740.75587532 C-94.33076046 1721.90279781 -94.91591228 1703.04959289 -95.49893188 1684.19631958 C-96.08825096 1665.1401616 -96.67952824 1646.0840659 -97.27328491 1627.02804565 C-97.31056976 1625.83139902 -97.3478546 1624.63475238 -97.38626929 1623.40184372 C-97.57713461 1617.27640981 -97.76803428 1611.15097698 -97.95894611 1605.02554452 C-99.386032 1559.2351733 -100.80879462 1513.44466869 -102.22954501 1467.65410055 C-102.63847349 1454.47443687 -103.04742501 1441.2947739 -103.4564209 1428.1151123 C-103.48105087 1427.32142386 -103.50568085 1426.52773542 -103.53105718 1425.70999581 C-104.82121307 1384.13589793 -106.1133258 1342.56186088 -107.40567949 1300.98783127 C-107.49718612 1298.044126 -107.5886916 1295.10042069 -107.68019681 1292.15671538 C-109.08485066 1246.9693875 -110.48986936 1201.78207098 -111.89526784 1156.59476626 C-112.05225326 1151.54725153 -112.20923615 1146.49973673 -112.36621934 1141.45222193 C-112.46046948 1138.42178369 -112.5547197 1135.39134545 -112.64896995 1132.36090722 C-112.71181072 1130.34038072 -112.77465145 1128.31985423 -112.83749211 1126.29932773 C-113.1830668 1115.18801567 -113.52865009 1104.07670388 -113.87425339 1092.96539271 C-115.34919708 1045.54499553 -116.82301622 998.1245637 -118.29471505 950.7040657 C-118.44947195 945.7175587 -118.6042319 940.73105179 -118.75899506 935.74454498 C-118.80474037 934.27061885 -118.80474037 934.27061885 -118.85140983 932.76691643 C-119.30441919 918.17116892 -119.75769783 903.57542978 -120.21121979 888.97969818 C-120.24051659 888.03683281 -120.2698134 887.09396744 -120.29999798 886.1225304 C-120.59157753 876.73872692 -120.88319726 867.35492468 -121.1748702 857.9711241 C-121.31768945 853.37625116 -121.46049753 848.78137788 -121.60329819 844.18650436 C-121.6453519 842.8333558 -121.6453519 842.8333558 -121.68825518 841.45287089 C-122.13400294 827.1093436 -122.57887868 812.76578939 -123.02339521 798.42222389 C-123.46473481 784.18169716 -123.90698161 769.94119884 -124.35016075 755.70072924 C-124.61100916 747.31808659 -124.87115939 738.93542298 -125.13026373 730.55272624 C-125.32377115 724.29478853 -125.51862012 718.03689323 -125.7139663 711.77901267 C-125.79206068 709.27074234 -125.86973484 706.76245889 -125.94691999 704.25416042 C-126.42997503 688.56569389 -127.00669405 672.88396537 -127.6953125 657.203125 C-134.1553878 693.03072395 -137.60874443 728.7001677 -139.8828125 765.015625 C-139.92558571 765.69705063 -139.96835892 766.37847626 -140.01242828 767.08055115 C-141.1618163 785.44669198 -142.14760402 803.80875528 -142.6953125 822.203125 C-142.74043831 823.63152218 -142.78561678 825.0599177 -142.83084106 826.48831177 C-144.08733964 867.15751049 -143.84858237 907.85387129 -143.82388186 948.53740358 C-143.8201138 955.46325448 -143.82147063 962.38909104 -143.82568359 969.31494141 C-143.89529498 1022.5658711 -143.89529498 1022.5658711 -143.3125 1075.8125 C-143.29735477 1076.78480812 -143.28220955 1077.75711624 -143.26660538 1078.75888824 C-143.09712622 1089.0850182 -142.61700934 1099.34177413 -141.74267578 1109.63378906 C-141.66132322 1110.5941293 -141.57997066 1111.55446953 -141.49615288 1112.54391098 C-140.16804351 1127.08342088 -134.31307933 1138.33102104 -127.47265625 1151.04296875 C-126.98651855 1151.94644043 -126.50038086 1152.84991211 -125.99951172 1153.78076172 C-125.56912598 1154.5801416 -125.13874023 1155.37952148 -124.6953125 1156.203125 C-118.25750869 1168.23055544 -119.67523799 1184.19487112 -122.6953125 1197.203125 C-124.28218484 1201.2749719 -125.9921441 1203.73434607 -129.6953125 1206.203125 C-132.5703125 1206.703125 -132.5703125 1206.703125 -135.6953125 1206.203125 C-143.58225097 1199.06732352 -145.4576308 1187.93801163 -147.76953125 1177.97973633 C-149.61963572 1170.39539445 -152.99379035 1165.58789592 -158.6953125 1160.203125 C-161.57182246 1175.11312696 -161.57182246 1175.11312696 -161.6953125 1190.203125 C-161.64503906 1190.99203125 -161.59476563 1191.7809375 -161.54296875 1192.59375 C-159.78661926 1202.96457558 -148.82189321 1210.0508266 -141.10546875 1216.30078125 C-135.98796523 1220.45568334 -132.67827547 1224.82575666 -130.6953125 1231.203125 C-130.40630753 1234.84335784 -130.74355308 1237.92455662 -132.9921875 1240.9453125 C-134.6953125 1242.203125 -134.6953125 1242.203125 -136.6484375 1242.33984375 C-157.54922775 1238.25210416 -175.72037853 1221.77598376 -189.0390625 1206.1328125 C-190.18025023 1204.80322114 -191.34892141 1203.49689504 -192.5390625 1202.2109375 C-200.54323083 1193.49453385 -203.92626335 1184.66138135 -203.82470703 1172.86572266 C-203.62498247 1168.75591876 -202.87541515 1164.84292972 -202.0078125 1160.828125 C-201.74315186 1159.54446045 -201.74315186 1159.54446045 -201.47314453 1158.23486328 C-200.36534286 1152.97640836 -199.09210832 1147.77667982 -197.72583008 1142.58007812 C-190.3447637 1114.40832087 -193.65103298 1088.175433 -198.08062744 1059.7286377 C-205.28143236 1013.45088765 -210.12064942 967.18702955 -213.45866585 920.47555542 C-213.67342542 917.50578695 -213.89562026 914.53671161 -214.12120056 911.56774902 C-217.29053553 869.38547837 -217.15909023 827.21196441 -217.08101952 784.93861079 C-217.06970034 778.09566624 -217.07379511 771.25285191 -217.08642578 764.40991211 C-217.16194119 722.44419792 -217.18070284 680.61635211 -213.89410782 638.75032616 C-213.68643484 636.08937393 -213.48690917 633.42790543 -213.28927612 630.76618958 C-207.98255121 559.52307603 -207.98255121 559.52307603 -185.6953125 535.203125 C-184.86257812 534.27757812 -184.02984375 533.35203125 -183.171875 532.3984375 C-157.57331508 505.29849576 -117.1392301 497.64703462 -81.6953125 493.203125 C-80.63618652 493.05629272 -80.63618652 493.05629272 -79.55566406 492.90649414 C-70.7656818 491.83184792 -61.9089939 492.09468951 -53.0703125 492.140625 C-51.38151174 492.14565023 -49.69270954 492.15021132 -48.00390625 492.15429688 C-43.90100539 492.16522101 -39.79817523 492.1824292 -35.6953125 492.203125 C-36.0253125 491.213125 -36.3553125 490.223125 -36.6953125 489.203125 C-36.78200779 487.68404876 -36.8130065 486.16143499 -36.80883789 484.63989258 C-36.80876236 483.71916458 -36.80868683 482.79843658 -36.80860901 481.84980774 C-36.80344772 480.85909775 -36.79828644 479.86838776 -36.79296875 478.84765625 C-36.79084633 477.32249641 -36.79084633 477.32249641 -36.78868103 475.76652527 C-36.78307957 472.51619536 -36.77052682 469.26593412 -36.7578125 466.015625 C-36.75279769 463.81315204 -36.74823475 461.61067799 -36.74414062 459.40820312 C-36.73310967 454.00648696 -36.71637012 448.60481088 -36.6953125 443.203125 C-38.06804321 442.76311157 -38.06804321 442.76311157 -39.46850586 442.31420898 C-51.10820057 438.30632137 -61.09485992 430.83378036 -70.10888672 422.63378906 C-71.8888126 421.02862352 -73.7016665 419.46501769 -75.515625 417.8984375 C-102.03717181 394.69680879 -116.36024505 368.95253495 -126.24829102 335.32202148 C-127.85835296 329.84969675 -129.61873146 324.51691395 -131.6953125 319.203125 C-132.30117187 319.26113281 -132.90703125 319.31914062 -133.53125 319.37890625 C-142.20417382 319.84590984 -147.81754829 317.38126462 -154.48828125 311.9140625 C-168.67944907 298.64287383 -177.04457698 279.31491576 -177.93359375 259.92578125 C-178.2366671 247.10756145 -177.90629214 231.24260545 -168.6953125 221.203125 C-163.39925108 216.24225734 -158.20615122 213.08426232 -150.73046875 213.28125 C-146.27090612 213.60558183 -142.02303747 214.07593858 -137.6953125 215.203125 C-138.09363281 214.06617188 -138.49195313 212.92921875 -138.90234375 211.7578125 C-151.79751912 174.43416653 -155.78134103 125.38533236 -138.84423828 88.46728516 C-133.80609034 78.24923881 -128.91459837 73.13191253 -118.7578125 68.265625 C-107.288906 62.75400141 -102.22207732 55.71616739 -95.83300781 44.9206543 C-92.08124449 38.64066984 -87.94972643 33.31853327 -82.6953125 28.203125 C-81.61443359 27.07390625 -81.61443359 27.07390625 -80.51171875 25.921875 C-60.31350898 6.03021478 -27.32515671 0.14265091 0 0 Z " fill="#F8B27F" transform="translate(216.6953125,-0.203125)"/>
<path d="M0 0 C0.97110718 0.0012085 1.94221436 0.00241699 2.94274902 0.00366211 C37.85205187 0.1214582 72.10074182 7.47921105 99.5 30.375 C100.49515625 31.20644531 101.4903125 32.03789063 102.515625 32.89453125 C129.22612075 55.93099724 141.31498711 90.07823272 144.33227539 124.55957031 C144.7131645 130.95318481 144.79169703 137.34677617 144.8125 143.75 C144.81511841 144.52601563 144.81773682 145.30203125 144.82043457 146.1015625 C144.83716636 193.06531275 137.84733371 240.12054753 104.5 275.375 C103.69046875 276.26058594 102.8809375 277.14617187 102.046875 278.05859375 C96.84680847 283.54668791 91.38864275 288.22770565 85.25 292.625 C84.25794556 293.36061157 84.25794556 293.36061157 83.24584961 294.11108398 C79.75699974 296.51346501 78.11993458 297.38796934 73.765625 297.296875 C71.06169354 296.5335642 68.96064686 295.66540292 66.5 294.375 C63.42640592 293.85265396 60.57146334 293.82301104 57.5 294.375 C54.39138486 296.56354423 54.39138486 296.56354423 52.5 299.375 C52.5 300.035 52.5 300.695 52.5 301.375 C53.11875 300.715 53.7375 300.055 54.375 299.375 C58.76138694 296.56771236 62.42103932 296.57734271 67.5 297.375 C71.1288526 299.09045759 72.94609712 300.65492626 75.375 303.8125 C76.5 307.375 76.5 307.375 76.5 320.375 C67.26 320.375 58.02 320.375 48.5 320.375 C48.5 316.745 48.5 313.115 48.5 309.375 C47.18 309.705 45.86 310.035 44.5 310.375 C44.17 313.675 43.84 316.975 43.5 320.375 C34.59 320.375 25.68 320.375 16.5 320.375 C16.5 318.725 16.5 317.075 16.5 315.375 C15.51 315.705 14.52 316.035 13.5 316.375 C13.17 317.695 12.84 319.015 12.5 320.375 C3.59 320.375 -5.32 320.375 -14.5 320.375 C-14.5 318.725 -14.5 317.075 -14.5 315.375 C-16.15 315.375 -17.8 315.375 -19.5 315.375 C-19.5 317.025 -19.5 318.675 -19.5 320.375 C-28.08 320.375 -36.66 320.375 -45.5 320.375 C-45.995 315.425 -45.995 315.425 -46.5 310.375 C-47.82 310.045 -49.14 309.715 -50.5 309.375 C-50.5 313.005 -50.5 316.635 -50.5 320.375 C-59.74 320.375 -68.98 320.375 -78.5 320.375 C-78.5 304.375 -78.5 304.375 -74.5 300.375 C-70.78410776 297.18994951 -67.44981302 296.92814108 -62.7265625 297.0703125 C-59.5874388 297.4998768 -57.17689753 298.72767844 -54.5 300.375 C-55.86983503 297.21384224 -56.4890638 296.3822908 -59.5 294.375 C-65.3415715 293.51823618 -69.336384 294.55848218 -74.5 297.375 C-81.32238929 298.25641607 -86.34386966 293.28437952 -91.5 289.375 C-95.96707859 285.8584994 -100.25263512 282.15234609 -104.5 278.375 C-105.15613281 277.80394531 -105.81226563 277.23289062 -106.48828125 276.64453125 C-136.5049805 248.77699901 -144.88163719 204.16275959 -146.375 165.11328125 C-147.6924786 120.05745074 -143.14137099 74.81279433 -112.171875 39.73828125 C-94.83181387 21.45083267 -72.1950877 10.54254059 -48 4.625 C-47.19481934 4.42624268 -46.38963867 4.22748535 -45.56005859 4.02270508 C-30.45453582 0.53416968 -15.43227003 -0.03557189 0 0 Z " fill="#FFFFFF" transform="translate(242.5,54.625)"/>
<path d="M0 0 C5.61 0 11.22 0 17 0 C17 5.28 17 10.56 17 16 C18.711875 16.0825 20.42375 16.165 22.1875 16.25 C25.57308063 16.59466607 28.02105717 17.0086706 31.1875 18.3125 C34.23919387 22.8374254 33.92733348 27.73792164 33 33 C31.56032089 35.43874468 30.36373995 36.32808638 28 38 C27.67 38.33 27.34 38.66 27 39 C24.03 39 21.06 39 18 39 C18 49.89 18 60.78 18 72 C37.23076708 70.65831858 55.10673768 68.41756953 73.5 62.5625 C74.39098389 62.28639893 75.28196777 62.01029785 76.19995117 61.72583008 C81.12791228 60.06884674 84.32130531 58.72333665 87 54 C87.78946609 51.31492671 87.78946609 51.31492671 88 49 C87.03320312 48.95101562 86.06640625 48.90203125 85.0703125 48.8515625 C63.96146533 47.63937128 63.96146533 47.63937128 56 42 C54.19078358 39.6401525 54.01136163 38.07466216 53.5625 35.125 C54.14000338 30.99997584 55.99118921 28.70553543 59 26 C64.7546508 21.98512735 70.63526491 22.47271657 77.328125 23.28125 C86.05945434 24.86876443 92.90344029 28.94303562 98.49609375 35.8203125 C103.58010407 43.18882617 105.05940063 50.23288945 104.93505859 59.11621094 C104.92348951 66.50114836 104.92348951 66.50114836 108.18359375 72.93359375 C110.80569273 75.26536691 110.80569273 75.26536691 113.5546875 77.140625 C116.88426226 79.67237833 118.47335585 82.27344502 119.6875 86.25390625 C120.59314787 92.94437985 118.87497336 97.11700506 116.10546875 103.17578125 C114.40875382 107.5104982 114.56964668 109.55837653 116 114 C117.3989636 115.83484247 118.91722652 117.48247379 120.49609375 119.1640625 C124.33991071 123.85651438 125.29839956 129.1952257 124.8125 135.125 C124.40167412 138.08751107 123.79713918 140.68018039 122.9375 143.5625 C121.76571687 147.85903816 120.99734729 151.60200061 122 156 C123.99190858 159.01583912 126.46514299 161.4388478 129 164 C134.81339314 170.97305965 136.75491455 177.9410254 136 187 C135.67 187.99 135.34 188.98 135 190 C134.41595355 197.44659226 136.36408732 202.81758998 140.6875 208.75 C144.02455336 213.93760114 143.81889352 219.02859947 143 225 C142.08478098 228.36234969 141.01464847 231.64350191 139.9140625 234.94921875 C138.69540399 239.01662173 137.81431039 242.83691203 139 247 C141.78266213 249.69393521 141.78266213 249.69393521 145 252 C148.6903704 258.27362967 149.10453135 264.53324744 147.37890625 271.51171875 C142.57763779 285.10464323 132.21323256 293.09277243 119.6875 299.25 C104.1979312 306.04941166 89.88490401 306.9612613 74 301 C52.32141475 291.38490984 33.59089378 272.90001432 21 253 C21 252.34 21 251.68 21 251 C6.70988126 249.78141273 6.70988126 249.78141273 -6.2109375 254.31640625 C-8.40112091 257.43884244 -10.17187562 260.65483963 -12 264 C-13.73488507 266.20058578 -15.62712842 268.22534354 -17.5625 270.25 C-18.0356665 270.75370117 -18.50883301 271.25740234 -18.99633789 271.77636719 C-20.32597522 273.18888919 -21.6627992 274.59463604 -23 276 C-23.64324219 276.70769531 -24.28648437 277.41539062 -24.94921875 278.14453125 C-36.13608958 290.05939801 -54.26032313 303.63918457 -71.16796875 304.2734375 C-90.50616215 304.83061665 -105.84647579 300.70537701 -120.3125 287.3125 C-126.57414626 280.72129341 -131.24439578 273.47614312 -131.5625 264.1875 C-131.2553622 259.44392733 -130.45089674 256.0848279 -128 252 C-126.948125 251.236875 -125.89625 250.47375 -124.8125 249.6875 C-121.76689447 246.77725472 -121.53249655 246.39381326 -121.375 242.4375 C-121.60578018 238.3441883 -122.61171976 234.90773663 -124 231.0625 C-126.28564731 224.70350266 -127.56848308 218.40135559 -125.234375 211.8515625 C-124.23521557 209.84531381 -123.13652512 207.93132478 -122 206 C-119.18089495 200.52369797 -117.36882045 196.31179549 -118 190 C-118.33 189.01 -118.66 188.02 -119 187 C-119.91304647 178.84245369 -118.34838054 171.68236103 -113.5390625 164.95703125 C-111.38400843 162.39175115 -109.25864806 160.20419583 -106.625 158.125 C-104.40022207 155.21567502 -104.51270577 153.08798742 -104.66015625 149.49609375 C-105.13787308 145.98734601 -106.23225369 142.76764166 -107.31640625 139.40625 C-109.10311116 133.11704873 -108.0577216 128.04768741 -105.29296875 122.21875 C-103.94998139 119.91416745 -102.41405422 118.02839936 -100.6875 116 C-98.38715057 113.05904693 -97.58253797 111.31251312 -97.875 107.5625 C-98.48920445 104.24693339 -99.63663603 101.51341297 -101.125 98.5 C-103.39282679 93.72344174 -103.53797751 90.05463954 -102 85 C-99.60948454 79.62871836 -96.30657526 76.0126768 -91.55078125 72.6171875 C-88.46614443 69.40046296 -88.01973178 65.77983429 -87.91015625 61.44921875 C-87.96042969 60.20785156 -88.01070312 58.96648438 -88.0625 57.6875 C-88.16839051 46.85490039 -85.60906609 39.84546426 -78 32 C-70.03382864 25.21619173 -60.96373969 22.32474961 -50.546875 22.6484375 C-45.42157363 23.35591775 -42.36483532 25.8057691 -38.5 29.1875 C-36.60561366 32.7394744 -36.67512437 34.99863734 -37.33203125 38.9140625 C-38.39588268 42.23626521 -39.98011961 43.35876066 -43 45 C-48.91504567 47.028236 -54.72634056 47.60704959 -60.9375 48.125 C-61.90751953 48.21136719 -62.87753906 48.29773438 -63.87695312 48.38671875 C-66.25084011 48.59721119 -68.62508706 48.80147885 -71 49 C-70.19883514 52.78732481 -69.57513499 55.38078924 -66.91015625 58.25 C-63.21244706 60.47358888 -59.55581526 61.7610921 -55.4375 63 C-54.60178467 63.25491211 -53.76606934 63.50982422 -52.9050293 63.77246094 C-35.7407211 68.85367284 -18.83287309 70.75584606 -1 72 C-1 61.44 -1 50.88 -1 40 C-2.98 40 -4.96 40 -7 40 C-11.24929937 37.70537834 -14.67815706 35.27219101 -17 31 C-17.3399345 27.45661497 -17.06249382 24.39998022 -16 21 C-11.47064166 16.23836687 -6.24405289 16.33751637 0 16 C0 10.72 0 5.44 0 0 Z " fill="#FFFFFF" transform="translate(233,520)"/>
<path d="M0 0 C7.11558851 3.73278124 13.88583922 7.96509148 20.60961914 12.35668945 C21.43606934 12.89302002 22.26251953 13.42935059 23.11401367 13.98193359 C27.78365312 17.03119483 32.37079835 20.16525849 36.91430664 23.3996582 C47.75837871 30.93143248 57.40538017 37.1271157 71.02758789 35.5090332 C79.37335778 33.79282449 85.96610111 28.90981857 92.69995117 23.92944336 C96.54646564 21.14718191 100.57821506 18.67223577 104.60961914 16.16918945 C106.1843747 15.17915737 107.75859555 14.18827426 109.33227539 13.1965332 C110.10845215 12.70910645 110.88462891 12.22167969 111.68432617 11.71948242 C113.27624055 10.71709285 114.86571773 9.71082349 116.45288086 8.70092773 C130.28304745 -0.09293353 143.06215184 -7.38592648 160.04711914 -5.76831055 C170.68106377 -3.16855383 177.51963542 3.65921387 183.44555664 12.5480957 C191.03796042 25.27000155 194.41520617 38.74575837 191.39477539 53.39575195 C186.05557591 69.29877529 174.73808618 80.2262398 161.71166992 89.98461914 C160.29269448 91.04770605 158.88542507 92.12638838 157.48071289 93.20825195 C151.34917689 97.752436 144.73134451 101.04057289 137.87915039 104.3371582 C137.24444824 104.65346191 136.60974609 104.96976563 135.95581055 105.2956543 C134.6769219 105.92282993 133.38131543 106.51693985 132.07202148 107.07788086 C129.88340611 108.04173232 129.88340611 108.04173232 127.04711914 110.23168945 C126.03665583 113.09665014 125.47124367 115.29523489 125.04711914 118.23168945 C118.84268262 146.09524981 118.84268262 146.09524981 107.35961914 154.10668945 C100.97033647 156.27663451 95.2969316 156.13065148 89.10961914 153.35668945 C80.00411612 148.28055076 71.81914168 140.57438337 67.04711914 131.23168945 C67.04711914 130.57168945 67.04711914 129.91168945 67.04711914 129.23168945 C66.05711914 129.23168945 65.06711914 129.23168945 64.04711914 129.23168945 C63.9659082 130.27196289 63.9659082 130.27196289 63.88305664 131.33325195 C62.75119 135.25776153 60.4181005 137.70562792 57.67211914 140.60668945 C56.87269897 141.46278809 56.87269897 141.46278809 56.05712891 142.33618164 C49.54016464 149.09451496 41.8878685 155.30450253 32.17211914 155.48168945 C30.90754883 155.52036133 30.90754883 155.52036133 29.61743164 155.55981445 C23.52876904 154.78253838 19.75875406 150.30503875 15.96899414 145.8527832 C10.05981297 137.79371701 8.18546447 128.40177178 6.56567383 118.73022461 C5.72059733 114.0515038 5.09900125 111.12203202 1.04711914 108.23168945 C-1.41976316 106.89581235 -3.85452507 105.66643262 -6.39038086 104.48168945 C-28.66940159 93.66731869 -50.34393281 78.67034927 -60.01538086 54.85668945 C-63.06893167 43.60456385 -61.21457757 31.84387501 -56.95288086 21.23168945 C-56.60225586 20.34868164 -56.25163086 19.46567383 -55.89038086 18.5559082 C-51.14974199 7.9717735 -43.31841064 0.30219229 -32.95288086 -4.76831055 C-22.23399539 -8.34127237 -9.75734577 -4.8641513 0 0 Z " fill="#FFFFFF" transform="translate(175.952880859375,954.768310546875)"/>
<path d="M0 0 C2.75 1.6875 2.75 1.6875 4.8125 3.5 C5.451875 3.891875 6.09125 4.28375 6.75 4.6875 C9.27363988 4.06216625 9.27363988 4.06216625 11.75 2.6875 C17.43440096 -0.07788425 22.44099197 0.01072178 28.375 1.75 C32.96547821 4.38527453 36.36978431 7.92706863 38.75 12.6875 C39.43820077 20.17905697 39.89437118 27.00425887 35.171875 33.19921875 C33.1547044 35.31059787 31.48336416 36.6208213 28.75 37.6875 C26.75039103 37.72704727 24.74951581 37.73150585 22.75 37.6875 C22.77815701 38.7549528 22.77815701 38.7549528 22.80688286 39.8439703 C26.77058178 190.14979459 26.77058178 190.14979459 27.93839264 241.26005936 C27.99908355 243.89767112 28.06108259 246.53524901 28.12347412 249.17282104 C28.60680867 269.68218907 28.86248532 290.171909 28.75 310.6875 C29.83796875 310.80867188 30.9259375 310.92984375 32.046875 311.0546875 C36.69497751 311.8489835 38.50955129 313.29975817 41.75 316.6875 C45.40815114 322.6624802 45.58265829 328.80169665 44.75 335.6875 C43.04950306 341.06760332 39.61629902 343.99550479 34.75 346.6875 C29.71913159 348.36445614 24.34490135 348.64132409 19.31640625 346.79296875 C17.41941813 345.83602109 15.57785386 344.77067266 13.75 343.6875 C13.75 342.6975 13.75 341.7075 13.75 340.6875 C13.23953125 341.0484375 12.7290625 341.409375 12.203125 341.78125 C5.78309024 345.87914453 0.28855201 346.81093324 -7.25 345.6875 C-12.62852743 343.96213009 -15.55142705 340.56568957 -18.25 335.6875 C-20.33582943 329.43001171 -20.3846802 322.08293597 -17.5625 316.125 C-16.4178125 314.9184375 -16.4178125 314.9184375 -15.25 313.6875 C-14.54875 312.945 -13.8475 312.2025 -13.125 311.4375 C-9.04599039 308.95462458 -4.91333299 308.41760455 -0.25 307.6875 C-0.31661048 306.61150889 -0.38322096 305.53551779 -0.45184994 304.42692089 C-1.13068412 293.09636001 -1.50427353 281.78051619 -1.73071289 270.43286133 C-1.77001836 268.57857744 -1.80958223 266.72429901 -1.84938049 264.87002563 C-1.95565041 259.87794818 -2.05792202 254.88579682 -2.15911031 249.89361405 C-2.24496425 245.67281248 -2.33263468 241.4520493 -2.42022032 237.23128337 C-2.62795239 227.21536533 -2.83221271 217.1993805 -3.03442383 207.18334961 C-3.21731916 198.12726729 -3.40454366 189.0712873 -3.59594727 180.01538086 C-5.65122269 82.69512832 -5.65122269 82.69512832 -5.25 37.6875 C-5.93271973 37.56197754 -6.61543945 37.43645508 -7.31884766 37.30712891 C-8.21651855 37.13616699 -9.11418945 36.96520508 -10.0390625 36.7890625 C-11.37251709 36.53890381 -11.37251709 36.53890381 -12.73291016 36.28369141 C-16.98458113 35.27665159 -19.82001223 33.53754667 -22.5 30.0703125 C-25.96627006 24.26912441 -25.98479044 18.27271052 -25.25 11.6875 C-23.50912333 5.81204123 -19.30309494 2.81512127 -14.25 -0.3125 C-9.18214847 -2.00178384 -4.88860069 -1.97424259 0 0 Z " fill="#FFFFFF" transform="translate(310.25,1150.3125)"/>
<path d="M0 0 C4.98153067 2.76751704 8.20341772 6.54561468 10.375 11.875 C11.27499063 18.33935579 11.31673337 24.30430538 7.875 30 C3.45554247 35.70454801 -1.87950089 36.53159024 -8.625 37.875 C-8.64469314 38.91157116 -8.66438627 39.94814232 -8.68467617 41.01612473 C-9.16809415 66.45940567 -9.65246762 91.9026683 -10.13779354 117.34591293 C-10.37249014 129.65101053 -10.60689723 141.9561135 -10.84057617 154.26123047 C-11.04469845 165.0099049 -11.24941134 175.7585679 -11.45477968 186.5072186 C-11.56309195 192.17711458 -11.67114519 197.84701517 -11.77848625 203.51692963 C-12.03326261 216.96675612 -12.29317875 230.41646579 -12.56435156 243.86597252 C-12.6052082 245.89304465 -12.64589651 247.92012018 -12.68642664 249.94719887 C-12.80760452 255.9971796 -12.93254394 262.04706254 -13.06276429 268.09685564 C-13.10222445 269.9494391 -13.14065488 271.80204486 -13.17790592 273.65467405 C-13.40897251 285.08270982 -13.86493125 296.46951029 -14.625 307.875 C-14.0160791 307.87943115 -13.4071582 307.8838623 -12.77978516 307.88842773 C-6.90559258 308.02220438 -3.47516019 309.69869562 0.70703125 313.7890625 C4.49295259 318.52368076 5.70019444 323.50093868 5.3125 329.5 C4.26635096 335.75509949 1.93357019 340.07404634 -3.25 343.8125 C-7.97537574 346.47381756 -12.32609314 346.67989724 -17.625 345.875 C-20.41590744 345.05633382 -22.94217702 344.02478128 -25.625 342.875 C-28.23383192 342.875 -28.93901343 343.80969374 -31 345.375 C-36.32598481 348.78013783 -41.48718522 348.77836476 -47.625 347.875 C-53.00366815 346.15267156 -55.9271653 342.75185503 -58.625 337.875 C-60.48391862 332.29824414 -60.58101558 325.55753571 -58.5 320 C-56.27460416 316.29100693 -54.24769643 314.24368613 -50.625 311.875 C-48.30165649 311.47797294 -45.96753865 311.13589885 -43.625 310.875 C-43.63187332 310.13506868 -43.63874664 309.39513737 -43.64582825 308.63278389 C-43.8622379 280.86397795 -43.14009315 253.12591349 -42.41342545 225.36848211 C-42.25958167 219.45972647 -42.10981914 213.55086835 -41.95998085 207.64200999 C-41.66386481 195.96974844 -41.36395618 184.29758775 -41.06152344 172.62548828 C-40.76845171 161.31434246 -40.4772527 150.00315087 -40.18847656 138.69189453 C-40.1615936 137.63893601 -40.1615936 137.63893601 -40.13416755 136.5647056 C-40.04423333 133.04169897 -39.95433491 129.51869143 -39.86445427 125.99568343 C-39.1235166 96.95531238 -38.3763002 67.91510478 -37.625 38.875 C-39.01332031 38.67583984 -39.01332031 38.67583984 -40.4296875 38.47265625 C-44.95508609 37.62621862 -47.98513094 35.92989765 -50.890625 32.2890625 C-54.47884059 26.30028014 -54.73351299 19.65300689 -53.625 12.875 C-50.97403617 6.945459 -46.54368827 3.28260201 -40.625 0.875 C-34.65988018 -0.15866697 -30.50086049 0.95463666 -25.44921875 4.1953125 C-23.60015408 5.11307532 -23.60015408 5.11307532 -21.6640625 4.125 C-20.65472656 3.50625 -20.65472656 3.50625 -19.625 2.875 C-12.68564609 -0.63957111 -7.7561299 -2.4070748 0 0 Z " fill="#FFFFFF" transform="translate(187.625,1150.125)"/>
<path d="M0 0 C3.83514301 2.33443488 6.28284085 4.84266733 8 9 C8.7235923 14.9175973 8.56008567 20.01588006 5 25 C0.82025255 28.52956451 -1.63623234 29.19450204 -7 29 C-6.99656334 30.41230188 -6.99656334 30.41230188 -6.99305725 31.85313511 C-6.93542105 58.14645994 -7.11477084 84.43315071 -7.40385818 110.72474933 C-7.46142393 116.00162863 -7.51657616 121.27853325 -7.57202148 126.55543518 C-7.67662438 136.47770844 -7.7832914 146.3999583 -7.89076519 156.32220083 C-8.0133379 167.64814437 -8.13351029 178.97411301 -8.25351524 190.30008399 C-8.49973732 213.53341751 -8.74886264 236.76671913 -9 260 C-7.01025391 260.18717448 -5.02050781 260.37434896 -3.03076172 260.56152344 C0.3917877 261.30051103 1.92076064 263.30921965 4 266 C6.33301197 270.11054489 6.68094599 274.36956724 6 279 C4.65005971 283.29526455 3.00506868 286.21555615 -0.5625 289 C-5.42839426 290.41553288 -9.98152272 290.85681319 -15 290 C-18.0625 287.5 -18.0625 287.5 -20 285 C-20.66 285 -21.32 285 -22 285 C-22.97646038 285.98230744 -23.93145177 286.98603772 -24.875 288 C-29.04886573 291.69260238 -32.76924683 291.74826236 -38.1875 291.45703125 C-43.08807976 290.66068704 -45.62644743 288.51090783 -48.875 284.9375 C-50.85508773 279.76727092 -51.0018736 274.13580776 -49.30859375 268.8359375 C-47.11040047 264.51313063 -44.53017697 262.51005899 -40 261 C-37.66704254 260.95812009 -35.33286127 260.9530667 -33 261 C-33.01127898 260.41580544 -33.02255796 259.83161087 -33.03417873 259.22971344 C-33.71564273 223.76811942 -34.21743025 188.31040357 -34.50268555 152.84326172 C-34.55191863 146.72442389 -34.60568584 140.60563557 -34.66065407 134.48684692 C-34.97100563 99.65681214 -35.05792445 64.83122435 -35 30 C-35.93328125 30.04769531 -36.8665625 30.09539062 -37.828125 30.14453125 C-41 30 -41 30 -43.75 27.6875 C-48.07495373 22.52158305 -48.43976577 19.53912876 -48.3125 12.953125 C-47.88986017 8.95917857 -46.79686436 6.87046606 -44 4 C-39.25149971 0.68709282 -34.6237716 0.20850622 -29 1 C-26.1875 2.375 -26.1875 2.375 -24 4 C-22.67500422 4.6830874 -21.342767 5.35254421 -20 6 C-19.45730469 5.57847656 -18.91460937 5.15695312 -18.35546875 4.72265625 C-17.64003906 4.17480469 -16.92460937 3.62695312 -16.1875 3.0625 C-15.47980469 2.51722656 -14.77210938 1.97195313 -14.04296875 1.41015625 C-9.48521824 -1.7358245 -5.17232043 -1.17469953 0 0 Z " fill="#FFFFFF" transform="translate(341,1535)"/>
<path d="M0 0 C3.91415855 2.10762383 6.59353839 4.25661528 9 8 C9.928125 7.195625 10.85625 6.39125 11.8125 5.5625 C16.10827746 1.83949287 20.0570726 1.70904175 25.5625 1.7890625 C30.18856954 2.18939544 32.21429993 4.17182966 35.3125 7.4375 C37.7703058 12.62620113 37.77337509 17.35436188 37 23 C35.76036606 26.30147406 33.95997768 28.31872551 31.0625 30.375 C28.63390436 31.11093807 26.52543176 31.04160514 24 31 C24.00523682 32.1547583 24.01047363 33.3095166 24.01586914 34.49926758 C24.31952599 110.32363123 23.644877 186.19285535 22 262 C23.08925781 261.97808594 24.17851562 261.95617188 25.30078125 261.93359375 C29.54221232 262.00973348 31.51591437 262.59985212 35 265 C38.69898575 269.76974479 39.65234941 273.54849784 39.38671875 279.56640625 C38.60829182 284.46499188 36.56421682 287.76509199 32.625 290.875 C28.31822953 292.72075877 25.21232571 293.19838057 20.5625 292.4375 C16.21829681 290.6845759 13.3367647 288.22520114 10 285 C8.8553125 286.2065625 8.8553125 286.2065625 7.6875 287.4375 C3.56317551 291.36999545 -0.04198648 291.3448092 -5.4921875 291.28125 C-10.21501693 290.75158689 -12.83587564 288.31934094 -15.875 284.875 C-18.00119203 279.44139814 -17.73331165 274.08414891 -15.8125 268.625 C-13.76085063 265.65364574 -12.08436107 263.89267611 -9 262 C-6.67438202 261.61652044 -4.34063373 261.27746949 -2 261 C-2.0154612 259.55915401 -2.0154612 259.55915401 -2.03123474 258.08920002 C-2.28390115 234.53443254 -2.53425902 210.97964134 -2.78230286 187.42482471 C-2.90231458 176.03312358 -3.02303122 164.64143079 -3.14550781 153.24975586 C-3.25246482 143.30139747 -3.35799698 133.35302507 -3.46193409 123.40463465 C-3.5168303 118.15468691 -3.57236086 112.90474789 -3.62960815 107.65482521 C-3.90772147 82.10214334 -4.06646891 56.55425429 -4 31 C-5.09828125 30.88269531 -6.1965625 30.76539063 -7.328125 30.64453125 C-11.8289568 29.85449162 -13.11100261 28.45074688 -16 25 C-16.598125 24.4225 -17.19625 23.845 -17.8125 23.25 C-20.08310224 18.94780629 -19.66382407 14.37557168 -18.37890625 9.77734375 C-16.36852849 4.99711219 -13.86397155 2.61229986 -9.08203125 0.625 C-5.8294371 -0.35138849 -3.36123005 -0.49796001 0 0 Z " fill="#FFFFFF" transform="translate(153,1534)"/>
<path d="M0 0 C6.93 0 13.86 0 21 0 C21.33 18.15 21.66 36.3 22 55 C25.96 55.33 29.92 55.66 34 56 C38.85234071 58.16622353 41.24625094 61.02704377 43.375 65.78125 C44.77484819 70.75071106 43.76838251 75.23272023 41.75 79.875 C38.80772916 83.44775745 35.4829907 85.13206752 31 86 C27.32809948 86.12820882 23.67561979 86.04375738 20 86 C20 91.28 20 96.56 20 102 C22.02125 102.103125 24.0425 102.20625 26.125 102.3125 C32.61215498 102.82668275 36.77865501 103.59854596 41.3125 108.5 C44.14732915 112.69974689 44.4089695 116.01057209 44 121 C42.60324064 125.13714049 41.00317385 128.2026054 37.5625 130.9375 C31.71753568 133.36102179 26.25798654 133.08343982 20 133 C20 138.61 20 144.22 20 150 C22.165625 149.896875 24.33125 149.79375 26.5625 149.6875 C34.578125 149.6875 34.578125 149.6875 38.1875 152.1875 C42.17452231 156.17452231 44.13002973 158.70601683 44.4375 164.375 C44.24261326 169.06007727 43.1873711 172.50475782 40 176 C33.74831392 181.07949494 28.29404624 180 20 180 C20 191.55 20 203.1 20 215 C13.73 215 7.46 215 1 215 C1 203.45 1 191.9 1 180 C-2.96 180 -6.92 180 -11 180 C-15.61503514 178.70202137 -17.40280361 177.75435334 -20.375 174 C-22.84723725 169.43586969 -23.43117233 166.1740679 -23 161 C-21.32597348 156.76722828 -19.02609315 153.2646774 -15 151 C-9.84735636 149.31726728 -4.34744 149.94187565 1 150 C1 144.39 1 138.78 1 133 C-0.69125 133.04125 -2.3825 133.0825 -4.125 133.125 C-10.14475597 133.10184709 -14.07422458 132.66316968 -18.75 128.625 C-21.7768074 125.0937247 -22.87293789 123.34685834 -23.3125 118.6875 C-22.89876087 113.80537821 -22.05279853 110.04227136 -18.4765625 106.484375 C-12.48838591 102.08799219 -6.24233954 102.22632311 1 102 C1 96.72 1 91.44 1 86 C-1.000625 86.0825 -3.00125 86.165 -5.0625 86.25 C-11.1123181 86.22369644 -14.36901452 85.94126424 -19 82 C-22.74745561 76.92859301 -23.88528647 72.1970053 -23 66 C-20.52911049 60.93670183 -17.91994434 58.9519666 -13 56 C-8.71 56 -4.42 56 0 56 C0 37.52 0 19.04 0 0 Z " fill="#FFFFFF" transform="translate(231,773)"/>
<path d="M0 0 C3.51450939 1.73230382 4.99871944 3.78830823 6.6875 7.3125 C7.53751586 12.14902436 7.79326885 17.10856209 5.55078125 21.578125 C2.35393283 25.57208785 -0.44097963 26.75965645 -5.3125 28.3125 C-4.32254938 60.99347555 -3.18654398 93.66522438 -1.8046875 126.33203125 C-1.77195268 127.10587583 -1.73921785 127.87972041 -1.70549107 128.67701483 C-1.30633059 138.10164136 -0.90221165 147.52605241 -0.49615407 156.95038402 C-0.14540067 165.09409152 0.20173111 173.23795246 0.54869294 181.38182223 C1.25785734 198.02554403 1.97114388 214.66908613 2.6875 231.3125 C3.96125488 231.29356689 5.23500977 231.27463379 6.54736328 231.25512695 C10.89382687 231.19052107 12.94050695 232.1698918 16.27734375 234.90625 C19.60652613 238.22621027 19.85186296 241.6739104 20.125 246.1875 C20.01416591 251.49961962 18.41310455 254.59721568 14.6875 258.3125 C11.02226488 261.46867469 7.78614599 261.75855148 3.11328125 261.6171875 C-0.89928846 261.11319324 -4.56799089 259.79968092 -8.3125 258.3125 C-8.869375 259.09625 -9.42625 259.88 -10 260.6875 C-12.96343065 264.05139425 -14.99658966 265.03373301 -19.421875 265.56640625 C-24.88867114 265.85075303 -28.07300251 265.04729541 -32.3125 261.3125 C-36.39227135 255.71013455 -36.22007393 250.00165599 -35.3125 243.3125 C-33.73618921 239.93469116 -31.45739315 238.08807278 -28.375 236 C-25.72777336 235.11759112 -23.06437963 234.75055431 -20.3125 234.3125 C-20.3765654 233.29998169 -20.4406308 232.28746338 -20.50663757 231.2442627 C-20.82088746 226.27742868 -21.13506432 221.31059005 -21.44921875 216.34375 C-21.50844639 215.40736883 -21.56767403 214.47098766 -21.62869644 213.50623131 C-22.35914448 201.95709602 -23.08884577 190.40791398 -23.81713867 178.85864258 C-23.88530824 177.77766076 -23.9534778 176.69667894 -24.02371311 175.5829401 C-24.30224691 171.16602642 -24.58077246 166.74911222 -24.85922432 162.33219337 C-25.65412134 149.7241144 -26.45115015 137.11617732 -27.25421047 124.50861549 C-27.71789333 117.22831885 -28.17951165 109.94789339 -28.63952732 102.66736412 C-28.90541658 98.46091359 -29.17239813 94.25453944 -29.44223022 90.04833984 C-30.65445152 71.14119028 -31.71861547 52.25155863 -32.3125 33.3125 C-34.20548828 33.11914062 -34.20548828 33.11914062 -36.13671875 32.921875 C-40.26448175 32.50024446 -42.36386505 31.34538166 -45.3125 28.3125 C-49.18857394 22.8464831 -49.09627964 17.81170646 -48.3125 11.3125 C-46.54333095 7.43393708 -45.08760222 5.85326899 -41.625 3.4375 C-36.5728636 1.72168009 -32.01678544 1.27652996 -26.95703125 3.21484375 C-25.03536048 4.17057735 -23.16757866 5.23318151 -21.3125 6.3125 C-20.94125 5.549375 -20.57 4.78625 -20.1875 4 C-15.31524713 -2.98356245 -7.23497076 -3.26569322 0 0 Z " fill="#FFFFFF" transform="translate(455.3125,588.6875)"/>
<path d="M0 0 C2 1.6875 2 1.6875 4 4.6875 C4 5.6775 4 6.6675 4 7.6875 C4.61746094 7.3265625 5.23492187 6.965625 5.87109375 6.59375 C11.67550499 3.41325069 16.3507442 1.50013289 23 2.6875 C27.60472604 4.52939041 29.88958968 7.23218933 32 11.6875 C32.7671246 17.33632658 32.77183018 22.05808072 30.3125 27.25 C25.48713973 32.33619055 21.70521328 32.94171607 15 33.6875 C15.01127143 34.3444775 15.02254286 35.001455 15.03415585 35.67834091 C15.3268946 55.77890584 14.35354816 75.65785662 13.01364064 95.70249271 C12.72989586 99.97724015 12.45669969 104.25266361 12.18223572 108.52801514 C11.66289903 116.59396497 11.13455816 124.65929693 10.60271591 132.7244308 C10.00068744 141.86046419 9.40872293 150.997141 8.81764996 160.13388872 C8.09469259 171.30810263 7.37032081 182.48222114 6.63795471 193.65582275 C6.56038289 194.83948543 6.56038289 194.83948543 6.48124397 196.04706049 C6.24091791 199.7128634 6.00024766 203.37864326 5.7590332 207.04438782 C5.15415717 216.25764381 4.57101432 225.47209619 4 234.6875 C5.8253125 235.0278125 5.8253125 235.0278125 7.6875 235.375 C12.63951916 236.61081363 15.45211818 239.13676518 18.109375 243.515625 C19.84205688 247.74093696 19.51860224 252.21455565 19 256.6875 C17.22652978 260.50728202 15.74050477 262.17086877 12.3125 264.5625 C7.04653364 266.3509414 2.28083487 266.67916733 -2.875 264.4375 C-4.99887774 262.68842422 -6.4955428 260.98377678 -8 258.6875 C-10.51376268 259.10646045 -12.64087246 259.49650609 -14.90234375 260.69921875 C-18.54115086 262.41359156 -22.07427151 262.33627132 -26 261.6875 C-30.53673418 259.58022616 -34.21615757 256.40943584 -36 251.6875 C-36.7060602 245.76057212 -36.56789739 240.68255634 -33 235.6875 C-29.51130054 232.61412191 -26.82456476 231.49923137 -22.2890625 231.08203125 C-21.4842041 231.0044458 -20.6793457 230.92686035 -19.85009766 230.84692383 C-18.93429932 230.76800903 -18.93429932 230.76800903 -18 230.6875 C-18.00668921 230.12479432 -18.01337843 229.56208864 -18.02027035 228.98233128 C-18.19381937 211.78212663 -17.61216307 194.64885802 -16.82135701 177.47023273 C-16.65200179 173.76119495 -16.48946988 170.05185775 -16.32627869 166.34254456 C-15.94622912 157.72791412 -15.55836146 149.11364488 -15.16957855 140.49940491 C-14.61056455 128.103593 -14.0564468 115.70756357 -13.50954771 103.31121111 C-13.44337275 101.81141553 -13.377112 100.31162373 -13.31076479 98.81183577 C-12.27760481 75.44283025 -11.41033525 52.07689885 -11 28.6875 C-11.76957031 28.57148437 -12.53914063 28.45546875 -13.33203125 28.3359375 C-18.03088619 27.19390248 -20.41177895 23.56983157 -23 19.6875 C-23.30078125 16.9453125 -23.30078125 16.9453125 -23.3125 13.8125 C-23.33763672 12.26949219 -23.33763672 12.26949219 -23.36328125 10.6953125 C-22.94894627 7.2647971 -22.04270329 5.45087664 -20 2.6875 C-13.85983897 -1.94894812 -7.20786201 -3.15343963 0 0 Z " fill="#FFFFFF" transform="translate(44,588.3125)"/>
<path d="M0 0 C1.68634735 1.64675079 3.35861535 3.30842913 5 5 C5.598125 5.45375 6.19625 5.9075 6.8125 6.375 C8.87694336 9.20002775 8.40567878 11.63866151 8 15 C6.20437595 17.75329021 4.94745078 19.52627461 2 21 C-2.77948224 21.7081622 -6.69425246 21.65367345 -10.7109375 18.796875 C-11.94718439 17.79943139 -13.16794814 16.78258217 -14.375 15.75 C-15.77275521 14.63484922 -17.17529437 13.52567399 -18.58203125 12.421875 C-19.30600098 11.85146484 -20.0299707 11.28105469 -20.77587891 10.69335938 C-55.0821475 -15.42610044 -97.05516822 -29.39772273 -139 -37 C-140.52778076 -37.2781958 -140.52778076 -37.2781958 -142.08642578 -37.56201172 C-166.65798192 -41.71132775 -190.03841686 -38.68557476 -214 -33 C-215.0621875 -32.75443359 -216.124375 -32.50886719 -217.21875 -32.25585938 C-255.39628644 -23.32644847 -289.73413352 -7.29707275 -321.34643555 15.68920898 C-330.05066021 22 -330.05066021 22 -334.5625 22 C-338.71297484 20.79258914 -339.85560262 19.71145701 -342 16 C-343.10492255 13.07520503 -343.35798824 11.20984346 -342.46484375 8.19140625 C-338.60001685 0.41481124 -330.17813085 -3.71470319 -323 -8 C-321.74123047 -8.75289307 -321.74123047 -8.75289307 -320.45703125 -9.52099609 C-279.4825097 -33.78419362 -234.61968249 -51.2279854 -187 -56 C-185.90171875 -56.11214844 -184.8034375 -56.22429687 -183.671875 -56.33984375 C-119.48945276 -61.891167 -49.56790513 -41.91679132 0 0 Z " fill="#FFFFFF" transform="translate(409,558)"/>
<path d="M0 0 C5.78602824 4.90554568 5.78602824 4.90554568 6.203125 8.98828125 C6.30099083 13.8407954 6.21440304 17.09679631 3 21 C-0.1170848 24.00959912 -2.79076761 24.37981296 -7 25 C-6.99083557 25.6448702 -6.98167114 26.28974039 -6.972229 26.95415211 C-6.74632091 45.63075548 -7.48599343 64.16955079 -8.61543274 82.80578017 C-8.84539998 86.62899895 -9.06618941 90.45274934 -9.28808594 94.27644348 C-9.70680984 101.46890614 -10.13340355 108.66087789 -10.56306076 115.85269481 C-11.05303 124.0607773 -11.53386731 132.2693875 -12.01406097 140.47804677 C-12.99944619 157.31929122 -13.9958984 174.15986084 -15 191 C-13.09734375 191.41765625 -13.09734375 191.41765625 -11.15625 191.84375 C-7.8116542 192.57792957 -7.05545527 192.94454473 -4.5 195.5 C-2.12468984 201.04239037 -1.95992152 206.28423951 -4.125 211.9375 C-7.24285451 215.36713996 -10.38324298 216.7592064 -14.9375 217.4375 C-19.04505955 216.85070578 -21.51490985 215.2304577 -25 213 C-25.845625 213.639375 -26.69125 214.27875 -27.5625 214.9375 C-31.00651974 217.20117494 -33.82477417 217.92675042 -38 218 C-41.8063427 216.85809719 -44.20959006 215.84140413 -46.9375 212.9375 C-48.68634167 208.10246714 -49.28540819 202.91002132 -47.15625 198.08984375 C-43.88996128 193.59869675 -40.16571609 192.8755451 -35 192 C-34.10728411 184.27479927 -33.71410398 176.57479684 -33.44335938 168.80541992 C-33.39605179 167.52095978 -33.3487442 166.23649963 -33.30000305 164.91311646 C-33.19777172 162.13651462 -33.09751855 159.35985124 -32.99885559 156.58312035 C-32.84204037 152.16998654 -32.68074518 147.75702299 -32.5189209 143.34407043 C-32.26271812 136.34297992 -32.00952867 129.34178417 -31.75760984 122.34053832 C-31.30832814 109.85642493 -30.85424765 97.37248588 -30.39858294 84.88860399 C-30.23943305 80.5250159 -30.08170403 76.1613795 -29.92513514 71.79769808 C-29.37651511 56.52671502 -28.77751211 41.2612065 -28 26 C-28.93199219 25.71253906 -29.86398437 25.42507813 -30.82421875 25.12890625 C-34.78676035 23.7203275 -36.4844205 22.3780639 -39 19 C-40.12133971 14.9879339 -40.2432704 11.33798722 -39.5 7.25 C-37.23941948 3.85912922 -34.77117985 1.61112787 -31 0 C-25.67133304 -0.45544162 -21.31082849 0.80164337 -17 4 C-16.0925 3.360625 -15.185 2.72125 -14.25 2.0625 C-9.10208793 -1.2044442 -6.02149247 -1.47896306 0 0 Z " fill="#FFFFFF" transform="translate(462,861)"/>
<path d="M0 0 C2.5625 1.625 2.5625 1.625 4 3 C4.9590625 2.2884375 4.9590625 2.2884375 5.9375 1.5625 C9.94225562 -0.48074266 13.50010546 -1.26189862 18 -1 C22.41662206 1.12652173 25.0983726 3.45722342 27 8 C27.77944541 14.01286459 26.38668967 17.20218963 23 22 C20.00607054 24.1518868 18.86092651 24 15 24 C15.03092239 24.70581207 15.06184479 25.41162415 15.09370422 26.13882446 C15.50830253 35.63386656 15.91341329 45.12929467 16.3125 54.625 C16.3455637 55.4115736 16.3786274 56.1981472 16.41269302 57.00855637 C17.69177996 87.52065294 18.72995311 118.03875604 19.6875 148.5625 C19.7208054 149.62404549 19.75411079 150.68559097 19.78842545 151.7793045 C20.1980671 164.85269284 20.6019126 177.92625489 21 191 C21.62068359 191.12117188 22.24136719 191.24234375 22.88085938 191.3671875 C24.09999023 191.61855469 24.09999023 191.61855469 25.34375 191.875 C26.55321289 192.11863281 26.55321289 192.11863281 27.78710938 192.3671875 C30.73041647 193.20887461 32.18084892 194.57446523 34 197 C35.97930159 200.95860317 35.5598088 205.69569237 35 210 C32.75 213.0625 32.75 213.0625 30 215 C29.401875 215.45375 28.80375 215.9075 28.1875 216.375 C24.06669694 217.5523723 19.91191157 216.99629147 16.1484375 215.03515625 C14.72228143 214.08551205 13.35429846 213.04958131 12 212 C10.4840625 212.99 10.4840625 212.99 8.9375 214 C5.13547593 216.14630391 2.40321363 216.64046744 -2 216 C-6.01665915 213.87799139 -8.34852837 212.22626602 -10 208 C-10.7502208 202.701072 -10.93138668 198.41119195 -7.9375 193.875 C-4.54088091 191.70694526 -1.95917294 191.45700701 2 191 C1.95877014 190.29121484 1.91754028 189.58242968 1.87506104 188.85216618 C0.86536818 171.48584872 -0.13624244 154.1190832 -1.12921143 136.75180149 C-1.60962126 128.35261684 -2.09261702 119.95359682 -2.58203125 111.55493164 C-3.00934162 104.22188966 -3.4314636 96.88856911 -3.84773636 89.554892 C-4.06766113 85.68339637 -4.28992309 81.81207167 -4.51843262 77.94107246 C-5.57868262 59.94929747 -6.28399733 42.0316359 -6 24 C-6.93328125 23.86078125 -7.8665625 23.7215625 -8.828125 23.578125 C-12.27553563 22.94977922 -14.24041157 22.14634656 -17 20 C-19.92238262 15.12936231 -19.48332734 9.65830038 -18.5 4.25 C-13.96669085 -2.54996373 -7.06719278 -2.7907775 0 0 Z " fill="#FFFFFF" transform="translate(34,862)"/>
<path d="M0 0 C2.19472639 -0.00967266 4.3885022 -0.0407042 6.58300781 -0.07226562 C15.11271336 -0.13653407 21.61377705 0.41927899 29.15332031 4.80273438 C33.98748436 9.89820459 36.74796529 15.68129531 37.02832031 22.74023438 C36.63277728 30.09941665 34.62640611 36.67106158 29.09082031 41.74023438 C23.96608325 45.91774515 18.17231248 46.5495551 11.75878906 46.54101562 C11.03395828 46.54530075 10.3091275 46.54958588 9.56233215 46.55400085 C8.03529906 46.55971739 6.50823875 46.56026425 4.98120117 46.5559082 C2.67025151 46.55275746 0.36059564 46.57620707 -1.95019531 46.6015625 C-19.56354021 46.6797219 -19.56354021 46.6797219 -25.36108398 41.65771484 C-30.14253921 36.70056508 -32.19726587 31.17619763 -32.97167969 24.42773438 C-32.68359898 17.80187811 -30.24703167 11.40383688 -26.15917969 6.24023438 C-17.81704329 -0.11567907 -10.06662894 0.02683242 0 0 Z " fill="#FFFFFF" transform="translate(318.5341796875,1855.759765625)"/>
<path d="M0 0 C2.13978673 0.02900167 4.27709202 0.02056867 6.41699219 0.00756836 C14.99440784 0.02083934 22.84009423 0.23895739 29.89355469 5.52905273 C34.90655475 12.07380281 38.20148483 18.13535283 37.14355469 26.46655273 C35.64552769 33.05329738 33.17949531 39.6057234 27.49169922 43.63745117 C20.42167418 47.23833349 13.16904841 47.04027897 5.43261719 46.93310547 C3.14802371 46.90410946 0.86575423 46.91253356 -1.41894531 46.92553711 C-18.54877163 46.90406195 -18.54877163 46.90406195 -25.19628906 41.59936523 C-25.72351563 40.93678711 -26.25074219 40.27420898 -26.79394531 39.59155273 C-27.33921875 38.93413086 -27.88449219 38.27670898 -28.44628906 37.59936523 C-32.64002052 31.25649162 -32.56504299 24.85871366 -31.85644531 17.46655273 C-30.32690196 11.73696603 -28.03697069 7.57486796 -22.85644531 4.46655273 C-22.02439575 3.95946777 -22.02439575 3.95946777 -21.17553711 3.44213867 C-14.36077532 -0.15748339 -7.53365288 -0.11139858 0 0 Z " fill="#FFFFFF" transform="translate(159.8564453125,1855.533447265625)"/>
<path d="M0 0 C2.17280905 -0.00217838 4.34510363 -0.02031478 6.51782227 -0.03930664 C7.90519033 -0.04224235 9.29256079 -0.04422596 10.67993164 -0.04516602 C11.93974854 -0.0492749 13.19956543 -0.05338379 14.49755859 -0.05761719 C18.75056862 0.24790191 21.68744153 0.9197712 24.64477539 4.06030273 C25.37954102 5.11217773 25.37954102 5.11217773 26.12915039 6.18530273 C26.62930664 6.88655273 27.12946289 7.58780273 27.64477539 8.31030273 C30.20931283 12.20580264 30.3205241 15.61909107 29.87915039 20.18530273 C28.42557371 26.42309241 25.64952129 30.77746806 20.13818359 34.29711914 C15.43777298 36.14517856 10.13143006 35.55708979 5.14453125 35.5559082 C3.08321635 35.5602677 1.02406927 35.59657052 -1.03686523 35.63452148 C-9.42933806 35.65924158 -14.76225349 35.48642286 -20.89819336 29.43139648 C-24.48027995 23.84720088 -25.05050266 18.73201734 -24.12084961 12.18530273 C-22.9683938 8.4384295 -21.66573021 6.38668966 -18.62084961 3.93530273 C-17.70819336 3.18506836 -17.70819336 3.18506836 -16.77709961 2.41967773 C-11.96876197 -1.16389466 -5.75491948 -0.00064757 0 0 Z " fill="#FFFFFF" transform="translate(385.120849609375,1870.814697265625)"/>
<path d="M0 0 C2.19636662 -0.02686169 4.38785915 -0.10176994 6.58300781 -0.17749023 C18.36698213 -0.39704966 18.36698213 -0.39704966 23.35644531 3.82055664 C27.15736411 7.79098743 28.76229856 11.28887784 28.84082031 16.78540039 C28.69296045 22.9462281 27.48975872 27.57364965 23.00561523 31.96557617 C16.87430171 36.40617249 10.68816253 36.23744384 3.31958008 36.07739258 C1.27165455 36.03526326 -0.77299971 36.03635669 -2.82128906 36.04321289 C-13.92333113 35.93323724 -13.92333113 35.93323724 -18.53417969 32.53540039 C-23.32808143 27.2955543 -26.00091193 23.9521805 -25.78417969 16.69165039 C-25.19615381 11.61992716 -23.77149933 7.74099389 -20.09667969 4.16040039 C-13.51763663 -0.01167569 -7.6404222 0.06194478 0 0 Z " fill="#FFFFFF" transform="translate(93.5341796875,1870.464599609375)"/>
<path d="M0 0 C1.99702945 -0.00966383 3.99391692 -0.04085079 5.99072266 -0.07226562 C18.4180554 -0.12262969 18.4180554 -0.12262969 23.76806641 3.24023438 C26.84768555 6.71235399 27.75304527 10.35398756 27.83056641 14.92773438 C26.37744328 19.45805941 24.00657122 21.79509554 20.04663086 24.3515625 C15.10891146 26.27734184 9.43017376 25.69278658 4.17895508 25.72070312 C1.97208944 25.74008923 -0.23102228 25.80214273 -2.43701172 25.86523438 C-14.26047758 26.04395279 -14.26047758 26.04395279 -18.61865234 22.45898438 C-21.29022796 19.6453847 -23.25131574 16.7520417 -23.20068359 12.80273438 C-21.92844486 5.84782931 -21.92844486 5.84782931 -18.29443359 2.67773438 C-12.14651989 -0.20802103 -6.70414147 0.01962666 0 0 Z " fill="#FFFFFF" transform="translate(239.23193359375,470.759765625)"/>
<path d="M0 0 C0.99 -0.01611328 1.98 -0.03222656 3 -0.04882812 C10.35204195 -0.05367776 17.5293998 0.44906982 23.125 5.625 C24.8678324 8.74757471 25.55326943 10.72597141 25.625 14.3125 C24.40691855 18.46830731 23.34644722 20.71585813 19.99438477 23.48803711 C16.13075536 25.58012482 13.0625876 25.90939772 8.77734375 25.87890625 C7.67586754 25.88820412 7.67586754 25.88820412 6.55213928 25.89768982 C5.00832436 25.90475803 3.46443274 25.90166651 1.9206543 25.88891602 C-0.43518408 25.87501367 -2.78707245 25.90919833 -5.14257812 25.94726562 C-6.64843847 25.94821665 -8.15430375 25.94635886 -9.66015625 25.94140625 C-10.35923599 25.95466446 -11.05831573 25.96792267 -11.77857971 25.98158264 C-15.65049342 25.90816368 -17.23027415 25.43383556 -20.23608398 22.91381836 C-20.94192627 22.0553833 -21.64776855 21.19694824 -22.375 20.3125 C-23.014375 19.57 -23.65375 18.8275 -24.3125 18.0625 C-25.94068657 13.84837005 -25.06195921 10.42590738 -23.375 6.3125 C-17.30033926 -0.45640768 -8.42181337 -0.02720224 0 0 Z " fill="#FFFFFF" transform="translate(241.375,441.6875)"/>
<path d="M0 0 C6.13509149 5.30602507 7.32996898 13.45225793 8.625 21.0625 C8.89666992 22.49432617 8.89666992 22.49432617 9.17382812 23.95507812 C10.24488397 29.99383268 11.03896006 35.50391838 8.21875 41.21484375 C6.05463196 43.86588835 4.49266391 45.71169985 1.08984375 46.54296875 C-3.51835317 46.7045249 -7.1984806 46.18996059 -10.6875 43 C-14.22574961 37.39419832 -15.76746221 31.50999848 -17 25.0625 C-17.18111328 24.22009766 -17.36222656 23.37769531 -17.54882812 22.50976562 C-18.93494428 15.50367659 -19.52713086 8.33534916 -15.6875 2 C-10.51255506 -1.36973159 -5.84974569 -2.17664956 0 0 Z " fill="#FFFFFF" transform="translate(450.6875,1138)"/>
<path d="M0 0 C3.79987772 2.63068458 5.10352132 5.51760661 6 10 C6.10627416 16.75431326 4.60902655 23.32324041 3.125 29.875 C2.88305908 30.96325073 2.88305908 30.96325073 2.63623047 32.07348633 C1.40056986 37.24324582 -0.02808612 41.31807346 -4.125 44.8125 C-8.79615305 46.7418893 -13.15992477 47.16501045 -17.9140625 45.21484375 C-20.0642734 43.63020965 -20.91038098 42.45883839 -22 40 C-23.85599503 27.48282419 -21.29866425 12.9703078 -15 2 C-10.15827769 -1.57365218 -5.62293825 -1.56371235 0 0 Z " fill="#FFFFFF" transform="translate(45,1138)"/>
<path d="M0 0 C1.33417969 -0.01160156 1.33417969 -0.01160156 2.6953125 -0.0234375 C11.05367559 0.00151284 11.05367559 0.00151284 15 2.25 C18.66366476 6.52427555 20.41908227 10.64477459 20 16.25 C19.16019233 19.3385032 18.15490354 21.86798653 16 24.25 C10.42124118 27.37467566 5.685093 27.685744 -0.625 27.5625 C-1.45773438 27.56572266 -2.29046875 27.56894531 -3.1484375 27.57226562 C-8.22003701 27.52784875 -12.64310606 27.44024487 -16.546875 23.8125 C-20.61954944 18.52331241 -21.30753037 16.28036594 -20.5703125 9.73046875 C-19.72063719 6.03496314 -18.01896107 4.44560805 -15 2.25 C-10.18519706 -0.35954968 -5.33058371 -0.0463529 0 0 Z " fill="#FFFFFF" transform="translate(43,1881.75)"/>
<path d="M0 0 C1.33417969 -0.01160156 1.33417969 -0.01160156 2.6953125 -0.0234375 C11.05367559 0.00151284 11.05367559 0.00151284 15 2.25 C18.66903151 6.53053676 20.40894142 10.64016255 20 16.25 C19.19543765 19.39510735 18.25847565 21.89763853 16 24.25 C10.13687888 27.04743687 5.24830612 27.69736601 -1.1875 27.5625 C-1.96802734 27.56572266 -2.74855469 27.56894531 -3.55273438 27.57226562 C-8.48500677 27.52624782 -12.7563232 27.33503299 -16.546875 23.8125 C-20.61954944 18.52331241 -21.30753037 16.28036594 -20.5703125 9.73046875 C-19.72063719 6.03496314 -18.01896107 4.44560805 -15 2.25 C-10.18519706 -0.35954968 -5.33058371 -0.0463529 0 0 Z " fill="#FFFFFF" transform="translate(441,1881.75)"/>
<path d="M0 0 C0.77633789 -0.00619858 1.55267578 -0.01239716 2.35253906 -0.01878357 C3.98631544 -0.02585579 5.62016427 -0.02275321 7.25390625 -0.01000977 C9.74354401 0.00387026 12.22942832 -0.03026253 14.71875 -0.06835938 C16.31250091 -0.06931061 17.90625649 -0.0674515 19.5 -0.0625 C20.23766602 -0.07575821 20.97533203 -0.08901642 21.73535156 -0.10267639 C25.65878554 -0.03252246 28.20581201 0.54530509 31.23608398 2.95874023 C33.75 5.56640625 33.75 5.56640625 34.22265625 7.91796875 C34.08730469 8.66820312 33.95195312 9.4184375 33.8125 10.19140625 C33.70035156 10.94679688 33.58820313 11.7021875 33.47265625 12.48046875 C32.58672717 15.03769107 32.00445349 16.03995337 29.75 17.56640625 C24.47354864 18.42081308 19.0896598 18.42236273 13.75 18.56640625 C12.96915039 18.5936377 12.18830078 18.62086914 11.38378906 18.64892578 C-5.27118802 19.19313897 -5.27118802 19.19313897 -13.25 15.56640625 C-14.90236085 13.9140454 -14.57780449 12.02427081 -14.6875 9.75390625 C-14.74808594 8.88121094 -14.80867187 8.00851562 -14.87109375 7.109375 C-14.25 4.56640625 -14.25 4.56640625 -11.72680664 2.44287109 C-7.69521671 0.26698455 -4.46736326 -0.03003736 0 0 Z " fill="#FFFFFF" transform="translate(152.25,1506.43359375)"/>
<path d="M0 0 C0.80090561 -0.00478363 1.60181122 -0.00956726 2.42698669 -0.01449585 C4.11207048 -0.01788357 5.797221 -0.00876017 7.48217773 0.01220703 C10.05536705 0.03902887 12.62420955 0.01240776 15.19726562 -0.01953125 C16.83985333 -0.01622763 18.48243834 -0.00982239 20.125 0 C20.88970108 -0.01012115 21.65440216 -0.02024231 22.442276 -0.03067017 C26.48509511 0.05770148 28.29413102 0.50079565 31.4777832 3.07446289 C33.44817154 5.60257576 34.18339845 6.59263606 34.12109375 9.7265625 C33.49609375 13.6640625 33.49609375 13.6640625 31.51171875 15.86328125 C27.4792303 18.27128277 24.24026601 18.33458094 19.62109375 18.4140625 C18.78481445 18.44081055 17.94853516 18.46755859 17.08691406 18.49511719 C15.37817809 18.54516385 13.66914305 18.58588619 11.95996094 18.6171875 C9.69172898 18.66034055 7.42715416 18.73591984 5.16015625 18.8203125 C-7.20208075 19.11641399 -7.20208075 19.11641399 -12.50390625 15.6640625 C-14.34969518 13.33676341 -14.50382585 11.66453484 -15.00390625 8.7265625 C-14.41625286 5.1271855 -13.17089402 3.92998909 -10.34768677 1.71392822 C-7.02770075 -0.1765026 -3.74234382 -0.04966303 0 0 Z " fill="#FFFFFF" transform="translate(311.50390625,1506.3359375)"/>
<path d="M0 0 C0.7940625 -0.03673828 1.588125 -0.07347656 2.40625 -0.11132812 C8.06872929 -0.15379672 8.06872929 -0.15379672 10.60546875 1.79736328 C13.45686885 5.11598326 15.868822 8.52419569 16.15234375 12.9296875 C15.62195822 19.12073312 14.53127519 22.25226262 10 26.5625 C6.63078823 28.24710589 2.8890138 27.87342974 -0.8125 27.9375 C-2.02389648 27.99357422 -2.02389648 27.99357422 -3.25976562 28.05078125 C-7.58745205 28.11458007 -9.4185218 28.01073882 -12.94921875 25.2890625 C-16.95006638 19.96984032 -17.73229354 16.15314185 -17 9.5625 C-15.781302 6.09883201 -14.81977274 4.21363378 -11.94921875 1.93359375 C-7.91194109 0.05666069 -4.40231575 0.01071992 0 0 Z " fill="#FFFFFF" transform="translate(435,1096.4375)"/>
<path d="M0 0 C0.75990234 -0.020625 1.51980469 -0.04125 2.30273438 -0.0625 C6.91854803 -0.09458211 9.9666553 0.21716055 13.6875 3.25 C16.35301731 8.02954827 17.27034658 11.8100986 16.6875 17.25 C15.51506153 20.95243728 14.67845957 23.44401955 11.63671875 25.91796875 C7.59891618 27.74166501 4.0712407 27.80182531 -0.3125 27.8125 C-1.1065625 27.84923828 -1.900625 27.88597656 -2.71875 27.92382812 C-8.38122929 27.96629672 -8.38122929 27.96629672 -10.91796875 26.01513672 C-13.76936885 22.69651674 -16.181322 19.28830431 -16.46484375 14.8828125 C-15.93445822 8.69176688 -14.84377519 5.56023738 -10.3125 1.25 C-7.0732886 -0.3696057 -3.55545619 0.02376245 0 0 Z " fill="#FFFFFF" transform="translate(48.3125,1096.75)"/>
<path d="M0 0 C5.41104196 3.69653203 8.45347234 10.3112995 11.375 16 C11.72087158 16.66386719 12.06674316 17.32773438 12.4230957 18.01171875 C14.72779633 22.70996203 15.75321632 26.75584688 16 32 C14.13834326 34.79248511 12.68866555 35.71003556 9.625 37 C5.6415006 37 4.00655189 35.5680964 1 33 C-0.9759145 30.48793797 -2.48566138 27.80973671 -4 25 C-4.53109375 24.0409375 -5.0621875 23.081875 -5.609375 22.09375 C-11.42939354 11.1188579 -11.42939354 11.1188579 -11 5 C-7.5857288 1.09797578 -5.18724603 -0.64942047 0 0 Z " fill="#FFFFFF" transform="translate(73,1138)"/>
<path d="M0 0 C3.3125 1.0625 3.3125 1.0625 5.3125 2.625 C7.00699666 6.75533562 6.07704343 11.05427083 4.52441406 15.13256836 C3.55218312 17.20664445 2.51640756 19.22946524 1.4375 21.25 C1.08558594 21.93513672 0.73367188 22.62027344 0.37109375 23.32617188 C-0.62582891 25.2514556 -1.64977801 27.15896307 -2.6875 29.0625 C-3.19796875 30.00867187 -3.7084375 30.95484375 -4.234375 31.9296875 C-6.46505045 35.2037434 -8.96055781 35.97012039 -12.6875 37.0625 C-16.20960905 36.26202067 -18.45964233 34.8926564 -20.6875 32.0625 C-21.2511648 25.05512165 -17.7218844 18.63141807 -14.4375 12.6875 C-14.0672168 12.00985596 -13.69693359 11.33221191 -13.31542969 10.6340332 C-10.16127653 5.20045895 -6.74544244 0.11432953 0 0 Z " fill="#FFFFFF" transform="translate(414.6875,1137.9375)"/>
<path d="M0 0 C9.24 0 18.48 0 28 0 C28 14.8 28 14.8 23.5 19.75 C19.47149387 23.37565552 16.73731521 23.29035679 11.47265625 23.20703125 C8.14804889 22.9286676 6.47414928 22.25584199 4 20 C-1.50938911 13.15048921 0 9.96712509 0 0 Z " fill="#FFFFFF" transform="translate(164,382)"/>
<path d="M0 0 C9.24 0 18.48 0 28 0 C28 14.19047619 28 14.19047619 26 18 C21.0973999 22.53490509 17.98880057 23.32657296 11.47265625 23.1953125 C8.00906266 22.92172691 6.4875276 22.4875276 4 20 C-0.02060062 12.95399693 0 8.55072895 0 0 Z " fill="#FFFFFF" transform="translate(291,382)"/>
<path d="M0 0 C9.24 0 18.48 0 28 0 C28 13 28 13 26 18 C21.3700816 22.16692656 18.50321215 23.38381811 12.38671875 23.265625 C8.53234037 22.83665981 5.75618159 21.77112024 3 19 C-0.50520332 12.87524971 0 7.06375722 0 0 Z " fill="#FFFFFF" transform="translate(259,382)"/>
<path d="M0 0 C9.24 0 18.48 0 28 0 C28 13.77659574 28 13.77659574 25 19 C21.81991342 22.12119609 18.33070887 23.21868117 13.9375 23.4375 C9.19722216 22.91080246 5.84929459 22.29151721 2.7421875 18.44140625 C-1.08788958 11.99991297 0 8.21522251 0 0 Z " fill="#FFFFFF" transform="translate(196,382)"/>
<path d="M0 0 C9.24 0 18.48 0 28 0 C28 14 28 14 25 19 C20.84802882 22.6576889 17.57018774 23.67027932 12.17578125 23.37109375 C8.52761293 22.74887474 6.67309187 21.54876202 4 19 C-0.31927018 12.39326586 0 8.41500819 0 0 Z " fill="#FFFFFF" transform="translate(227,382)"/>
<path d="M0 0 C3.01684845 2.04080925 4.88182617 4.57122233 7.125 7.4375 C5.11322274 13.13753557 3.25264475 16.11961222 -1.875 19.4375 C-4.875 20.1875 -4.875 20.1875 -7.875 19.4375 C-10.17763377 17.31360949 -12.04855655 14.97638593 -13.875 12.4375 C-11.84529002 6.68665505 -9.86559711 3.97250629 -4.875 0.4375 C-1.875 -0.5625 -1.875 -0.5625 0 0 Z " fill="#FFFFFF" transform="translate(445.875,1190.5625)"/>
<path d="M0 0 C4.89470133 1.15169443 8.0795468 3.8422059 11.1875 7.75 C12.0625 11.375 12.0625 11.375 11.1875 14.75 C8.53579036 17.6483803 6.55257978 19.3649775 2.75 20.4375 C-1.25867543 19.36200171 -3.96785726 16.70169919 -6.8125 13.75 C-8.25680855 10.86138291 -8.18938506 8.95352299 -7.8125 5.75 C-5.43883542 2.53857145 -3.87807732 1.03415395 0 0 Z " fill="#FFFFFF" transform="translate(38.8125,1190.25)"/>
<path d="M0 0 C4.37313617 1.57432902 6.78821077 4.13721837 9.125 8.125 C9.3125 10.8125 9.3125 10.8125 8.125 13.125 C5.9375 15.5625 5.9375 15.5625 3.125 17.125 C-1.33409946 16.65062772 -3.42359699 14.76532677 -6.25 11.5 C-7.13754933 10.38487392 -8.01695022 9.26298092 -8.875 8.125 C-7.97127089 5.33850192 -7.1358483 3.40448033 -5.125 1.25 C-2.875 0.125 -2.875 0.125 0 0 Z " fill="#FFFFFF" transform="translate(54.875,1206.875)"/>
<path d="M0 0 C1.69055226 2.33457217 2.00969831 3.61206752 1.9375 6.5 C0.65699478 9.91468058 -0.92276974 11.08527895 -4 13 C-7 14.0625 -7 14.0625 -10 14 C-12.9375 11.875 -12.9375 11.875 -15 9 C-15.1875 6.5 -15.1875 6.5 -14 4 C-9.55745274 -0.34382399 -5.73182625 -4.01227837 0 0 Z " fill="#FFFFFF" transform="translate(434,1209)"/>
<path d="M0 0 C3.54167568 1.71717609 5.37707431 4.58630951 7.0625 8.0625 C7.0625 10 7.0625 10 5.4375 12.3125 C3.0625 14 3.0625 14 0.625 14.125 C-3.04584374 12.51341006 -4.55362673 10.20120124 -6.9375 7 C-3.79956897 0 -3.79956897 0 0 0 Z " fill="#FFFFFF" transform="translate(69.9375,1221)"/>
<path d="M0 0 C3.65316671 1.24976756 4.78065836 1.67098753 7 5 C6.89972512 8.10852121 6.00160624 8.99843837 3.75 11.1875 C1.02614544 12.98276778 -0.79451349 13.63365868 -4 14 C-5.625 11.8125 -5.625 11.8125 -7 9 C-6.12084283 4.49431951 -3.64167578 2.58750647 0 0 Z " fill="#FFFFFF" transform="translate(413,1221)"/>
</svg>